<?xml version="1.0" encoding="UTF-8" standalone="no"?>
<!DOCTYPE svg PUBLIC "-//W3C//DTD SVG 1.1//EN"
 "http://www.w3.org/Graphics/SVG/1.1/DTD/svg11.dtd">
<!-- Generated by graphviz version 2.42.3 (20191010.1750)
 -->
<!-- Title: snakemake_dag Pages: 1 -->
<svg width="282pt" height="332pt"
 viewBox="0.00 0.00 282.00 332.00" xmlns="http://www.w3.org/2000/svg" xmlns:xlink="http://www.w3.org/1999/xlink">
<g id="graph0" class="graph" transform="scale(1 1) rotate(0) translate(4 328)">
<title>snakemake_dag</title>
<polygon fill="white" stroke="transparent" points="-4,4 -4,-328 278,-328 278,4 -4,4"/>
<!-- 0 -->
<g id="node1" class="node">
<title>0</title>
<path fill="none" stroke="#56d89a" stroke-width="2" d="M106,-36C106,-36 76,-36 76,-36 70,-36 64,-30 64,-24 64,-24 64,-12 64,-12 64,-6 70,0 76,0 76,0 106,0 106,0 112,0 118,-6 118,-12 118,-12 118,-24 118,-24 118,-30 112,-36 106,-36"/>
<text text-anchor="middle" x="91" y="-15.5" font-family="sans" font-size="10.00">all</text>
</g>
<!-- 1 -->
<g id="node2" class="node">
<title>1</title>
<path fill="none" stroke="#d85656" stroke-width="2" d="M224,-108C224,-108 154,-108 154,-108 148,-108 142,-102 142,-96 142,-96 142,-84 142,-84 142,-78 148,-72 154,-72 154,-72 224,-72 224,-72 230,-72 236,-78 236,-84 236,-84 236,-96 236,-96 236,-102 230,-108 224,-108"/>
<text text-anchor="middle" x="189" y="-87.5" font-family="sans" font-size="10.00">samtools_index</text>
</g>
<!-- 1&#45;&gt;0 -->
<g id="edge1" class="edge">
<title>1&#45;&gt;0</title>
<path fill="none" stroke="grey" stroke-width="2" d="M165.03,-71.88C152.45,-62.89 136.87,-51.76 123.25,-42.03"/>
<polygon fill="grey" stroke="grey" stroke-width="2" points="125.24,-39.15 115.07,-36.19 121.17,-44.85 125.24,-39.15"/>
</g>
<!-- 2 -->
<g id="node3" class="node">
<title>2</title>
<path fill="none" stroke="#d6d856" stroke-width="2" d="M230,-180C230,-180 130,-180 130,-180 124,-180 118,-174 118,-168 118,-168 118,-156 118,-156 118,-150 124,-144 130,-144 130,-144 230,-144 230,-144 236,-144 242,-150 242,-156 242,-156 242,-168 242,-168 242,-174 236,-180 230,-180"/>
<text text-anchor="middle" x="180" y="-159.5" font-family="sans" font-size="10.00">GATK_MarkDuplicates</text>
</g>
<!-- 2&#45;&gt;1 -->
<g id="edge4" class="edge">
<title>2&#45;&gt;1</title>
<path fill="none" stroke="grey" stroke-width="2" d="M182.22,-143.7C183.22,-135.98 184.41,-126.71 185.51,-118.11"/>
<polygon fill="grey" stroke="grey" stroke-width="2" points="189,-118.47 186.8,-108.1 182.05,-117.58 189,-118.47"/>
</g>
<!-- 7 -->
<g id="node8" class="node">
<title>7</title>
<path fill="none" stroke="#56d8d8" stroke-width="2" d="M111.5,-108C111.5,-108 70.5,-108 70.5,-108 64.5,-108 58.5,-102 58.5,-96 58.5,-96 58.5,-84 58.5,-84 58.5,-78 64.5,-72 70.5,-72 70.5,-72 111.5,-72 111.5,-72 117.5,-72 123.5,-78 123.5,-84 123.5,-84 123.5,-96 123.5,-96 123.5,-102 117.5,-108 111.5,-108"/>
<text text-anchor="middle" x="91" y="-87.5" font-family="sans" font-size="10.00">freebayes</text>
</g>
<!-- 2&#45;&gt;7 -->
<g id="edge8" class="edge">
<title>2&#45;&gt;7</title>
<path fill="none" stroke="grey" stroke-width="2" d="M158,-143.7C146.79,-134.88 133,-124.03 120.85,-114.47"/>
<polygon fill="grey" stroke="grey" stroke-width="2" points="122.77,-111.54 112.75,-108.1 118.44,-117.04 122.77,-111.54"/>
</g>
<!-- 3 -->
<g id="node4" class="node">
<title>3</title>
<path fill="none" stroke="#97d856" stroke-width="2" d="M208,-252C208,-252 152,-252 152,-252 146,-252 140,-246 140,-240 140,-240 140,-228 140,-228 140,-222 146,-216 152,-216 152,-216 208,-216 208,-216 214,-216 220,-222 220,-228 220,-228 220,-240 220,-240 220,-246 214,-252 208,-252"/>
<text text-anchor="middle" x="180" y="-231.5" font-family="sans" font-size="10.00">bowtie2Align</text>
</g>
<!-- 3&#45;&gt;2 -->
<g id="edge5" class="edge">
<title>3&#45;&gt;2</title>
<path fill="none" stroke="grey" stroke-width="2" d="M180,-215.7C180,-207.98 180,-198.71 180,-190.11"/>
<polygon fill="grey" stroke="grey" stroke-width="2" points="183.5,-190.1 180,-180.1 176.5,-190.1 183.5,-190.1"/>
</g>
<!-- 4 -->
<g id="node5" class="node">
<title>4</title>
<path fill="none" stroke="#569ad8" stroke-width="2" d="M164,-324C164,-324 90,-324 90,-324 84,-324 78,-318 78,-312 78,-312 78,-300 78,-300 78,-294 84,-288 90,-288 90,-288 164,-288 164,-288 170,-288 176,-294 176,-300 176,-300 176,-312 176,-312 176,-318 170,-324 164,-324"/>
<text text-anchor="middle" x="127" y="-309" font-family="sans" font-size="10.00">trimmomatic_pe</text>
<text text-anchor="middle" x="127" y="-298" font-family="sans" font-size="10.00">sample: A</text>
</g>
<!-- 4&#45;&gt;3 -->
<g id="edge6" class="edge">
<title>4&#45;&gt;3</title>
<path fill="none" stroke="grey" stroke-width="2" d="M140.1,-287.7C146.39,-279.39 154.05,-269.28 160.96,-260.14"/>
<polygon fill="grey" stroke="grey" stroke-width="2" points="163.8,-262.19 167.05,-252.1 158.22,-257.96 163.8,-262.19"/>
</g>
<!-- 5 -->
<g id="node6" class="node">
<title>5</title>
<path fill="none" stroke="#d89556" stroke-width="2" d="M262,-324C262,-324 206,-324 206,-324 200,-324 194,-318 194,-312 194,-312 194,-300 194,-300 194,-294 200,-288 206,-288 206,-288 262,-288 262,-288 268,-288 274,-294 274,-300 274,-300 274,-312 274,-312 274,-318 268,-324 262,-324"/>
<text text-anchor="middle" x="234" y="-303.5" font-family="sans" font-size="10.00">bowtie2Build</text>
</g>
<!-- 5&#45;&gt;3 -->
<g id="edge7" class="edge">
<title>5&#45;&gt;3</title>
<path fill="none" stroke="grey" stroke-width="2" d="M220.65,-287.7C214.24,-279.39 206.44,-269.28 199.39,-260.14"/>
<polygon fill="grey" stroke="grey" stroke-width="2" points="202.07,-257.88 193.19,-252.1 196.53,-262.16 202.07,-257.88"/>
</g>
<!-- 6 -->
<g id="node7" class="node">
<title>6</title>
<path fill="none" stroke="#59d856" stroke-width="2" d="M80,-180C80,-180 12,-180 12,-180 6,-180 0,-174 0,-168 0,-168 0,-156 0,-156 0,-150 6,-144 12,-144 12,-144 80,-144 80,-144 86,-144 92,-150 92,-156 92,-156 92,-168 92,-168 92,-174 86,-180 80,-180"/>
<text text-anchor="middle" x="46" y="-159.5" font-family="sans" font-size="10.00">samtools_faidx</text>
</g>
<!-- 6&#45;&gt;0 -->
<g id="edge2" class="edge">
<title>6&#45;&gt;0</title>
<path fill="none" stroke="grey" stroke-width="2" d="M43.46,-143.66C41.47,-125.27 40.31,-95.66 49,-72 52.7,-61.92 59.12,-52.27 65.85,-44.04"/>
<polygon fill="grey" stroke="grey" stroke-width="2" points="68.65,-46.15 72.58,-36.31 63.37,-41.55 68.65,-46.15"/>
</g>
<!-- 6&#45;&gt;7 -->
<g id="edge9" class="edge">
<title>6&#45;&gt;7</title>
<path fill="none" stroke="grey" stroke-width="2" d="M57.12,-143.7C62.36,-135.56 68.7,-125.69 74.48,-116.7"/>
<polygon fill="grey" stroke="grey" stroke-width="2" points="77.54,-118.41 80,-108.1 71.65,-114.62 77.54,-118.41"/>
</g>
<!-- 7&#45;&gt;0 -->
<g id="edge3" class="edge">
<title>7&#45;&gt;0</title>
<path fill="none" stroke="grey" stroke-width="2" d="M91,-71.7C91,-63.98 91,-54.71 91,-46.11"/>
<polygon fill="grey" stroke="grey" stroke-width="2" points="94.5,-46.1 91,-36.1 87.5,-46.1 94.5,-46.1"/>
</g>
</g>
</svg>
