<?xml version="1.0" encoding="UTF-8" standalone="no"?>
<!DOCTYPE svg PUBLIC "-//W3C//DTD SVG 1.1//EN"
 "http://www.w3.org/Graphics/SVG/1.1/DTD/svg11.dtd">
<!-- Generated by graphviz version 2.42.3 (20191010.1750)
 -->
<!-- Title: snakemake_dag Pages: 1 -->
<svg width="1038pt" height="404pt"
 viewBox="0.00 0.00 1037.78 404.00" xmlns="http://www.w3.org/2000/svg" xmlns:xlink="http://www.w3.org/1999/xlink">
<g id="graph0" class="graph" transform="scale(1 1) rotate(0) translate(4 400)">
<title>snakemake_dag</title>
<polygon fill="white" stroke="transparent" points="-4,4 -4,-400 1033.78,-400 1033.78,4 -4,4"/>
<!-- 0 -->
<g id="node1" class="node">
<title>0</title>
<path fill="none" stroke="#68d856" stroke-width="2" d="M584.65,-36C584.65,-36 554.65,-36 554.65,-36 548.65,-36 542.65,-30 542.65,-24 542.65,-24 542.65,-12 542.65,-12 542.65,-6 548.65,0 554.65,0 554.65,0 584.65,0 584.65,0 590.65,0 596.65,-6 596.65,-12 596.65,-12 596.65,-24 596.65,-24 596.65,-30 590.65,-36 584.65,-36"/>
<text text-anchor="middle" x="569.65" y="-15.5" font-family="sans" font-size="10.00">all</text>
</g>
<!-- 1 -->
<g id="node2" class="node">
<title>1</title>
<path fill="none" stroke="#56d86b" stroke-width="2" d="M273.65,-180C273.65,-180 203.65,-180 203.65,-180 197.65,-180 191.65,-174 191.65,-168 191.65,-168 191.65,-156 191.65,-156 191.65,-150 197.65,-144 203.65,-144 203.65,-144 273.65,-144 273.65,-144 279.65,-144 285.65,-150 285.65,-156 285.65,-156 285.65,-168 285.65,-168 285.65,-174 279.65,-180 273.65,-180"/>
<text text-anchor="middle" x="238.65" y="-159.5" font-family="sans" font-size="10.00">samtools_index</text>
</g>
<!-- 1&#45;&gt;0 -->
<g id="edge1" class="edge">
<title>1&#45;&gt;0</title>
<path fill="none" stroke="grey" stroke-width="2" d="M191.33,-158.24C109.98,-151.86 -42.68,-131.73 11.65,-72 46.68,-33.48 413.2,-22.32 532.41,-19.7"/>
<polygon fill="grey" stroke="grey" stroke-width="2" points="532.59,-23.2 542.51,-19.49 532.44,-16.2 532.59,-23.2"/>
</g>
<!-- 11 -->
<g id="node12" class="node">
<title>11</title>
<path fill="none" stroke="#d87d56" stroke-width="2" d="M476.15,-108C476.15,-108 435.15,-108 435.15,-108 429.15,-108 423.15,-102 423.15,-96 423.15,-96 423.15,-84 423.15,-84 423.15,-78 429.15,-72 435.15,-72 435.15,-72 476.15,-72 476.15,-72 482.15,-72 488.15,-78 488.15,-84 488.15,-84 488.15,-96 488.15,-96 488.15,-102 482.15,-108 476.15,-108"/>
<text text-anchor="middle" x="455.65" y="-87.5" font-family="sans" font-size="10.00">freebayes</text>
</g>
<!-- 1&#45;&gt;11 -->
<g id="edge21" class="edge">
<title>1&#45;&gt;11</title>
<path fill="none" stroke="grey" stroke-width="2" d="M285.75,-148.21C319.21,-138.81 365.32,-125.22 413.44,-108.28"/>
<polygon fill="grey" stroke="grey" stroke-width="2" points="414.84,-111.5 423.09,-104.85 412.49,-104.9 414.84,-111.5"/>
</g>
<!-- 13 -->
<g id="node14" class="node">
<title>13</title>
<path fill="none" stroke="#d8a456" stroke-width="2" d="M142.65,-108C142.65,-108 32.65,-108 32.65,-108 26.65,-108 20.65,-102 20.65,-96 20.65,-96 20.65,-84 20.65,-84 20.65,-78 26.65,-72 32.65,-72 32.65,-72 142.65,-72 142.65,-72 148.65,-72 154.65,-78 154.65,-84 154.65,-84 154.65,-96 154.65,-96 154.65,-102 148.65,-108 142.65,-108"/>
<text text-anchor="middle" x="87.65" y="-87.5" font-family="sans" font-size="10.00">GATK_DepthofCoverage</text>
</g>
<!-- 1&#45;&gt;13 -->
<g id="edge28" class="edge">
<title>1&#45;&gt;13</title>
<path fill="none" stroke="grey" stroke-width="2" d="M201.71,-143.88C181.16,-134.35 155.4,-122.41 133.56,-112.28"/>
<polygon fill="grey" stroke="grey" stroke-width="2" points="135.01,-109.1 124.47,-108.07 132.07,-115.45 135.01,-109.1"/>
</g>
<!-- 16 -->
<g id="node17" class="node">
<title>16</title>
<path fill="none" stroke="#56d892" stroke-width="2" d="M288.15,-108C288.15,-108 185.15,-108 185.15,-108 179.15,-108 173.15,-102 173.15,-96 173.15,-96 173.15,-84 173.15,-84 173.15,-78 179.15,-72 185.15,-72 185.15,-72 288.15,-72 288.15,-72 294.15,-72 300.15,-78 300.15,-84 300.15,-84 300.15,-96 300.15,-96 300.15,-102 294.15,-108 288.15,-108"/>
<text text-anchor="middle" x="236.65" y="-87.5" font-family="sans" font-size="10.00">GATK_HaplotypeCaller</text>
</g>
<!-- 1&#45;&gt;16 -->
<g id="edge34" class="edge">
<title>1&#45;&gt;16</title>
<path fill="none" stroke="grey" stroke-width="2" d="M238.15,-143.7C237.93,-135.98 237.67,-126.71 237.42,-118.11"/>
<polygon fill="grey" stroke="grey" stroke-width="2" points="240.92,-118 237.14,-108.1 233.92,-118.2 240.92,-118"/>
</g>
<!-- 18 -->
<g id="node19" class="node">
<title>18</title>
<path fill="none" stroke="#b6d856" stroke-width="2" d="M393.15,-108C393.15,-108 330.15,-108 330.15,-108 324.15,-108 318.15,-102 318.15,-96 318.15,-96 318.15,-84 318.15,-84 318.15,-78 324.15,-72 330.15,-72 330.15,-72 393.15,-72 393.15,-72 399.15,-72 405.15,-78 405.15,-84 405.15,-84 405.15,-96 405.15,-96 405.15,-102 399.15,-108 393.15,-108"/>
<text text-anchor="middle" x="361.65" y="-87.5" font-family="sans" font-size="10.00">GATK_Mutect2</text>
</g>
<!-- 1&#45;&gt;18 -->
<g id="edge40" class="edge">
<title>1&#45;&gt;18</title>
<path fill="none" stroke="grey" stroke-width="2" d="M268.74,-143.88C284.97,-134.64 305.19,-123.13 322.62,-113.21"/>
<polygon fill="grey" stroke="grey" stroke-width="2" points="324.48,-116.18 331.44,-108.19 321.02,-110.09 324.48,-116.18"/>
</g>
<!-- 2 -->
<g id="node3" class="node">
<title>2</title>
<path fill="none" stroke="#d85656" stroke-width="2" d="M390.65,-252C390.65,-252 290.65,-252 290.65,-252 284.65,-252 278.65,-246 278.65,-240 278.65,-240 278.65,-228 278.65,-228 278.65,-222 284.65,-216 290.65,-216 290.65,-216 390.65,-216 390.65,-216 396.65,-216 402.65,-222 402.65,-228 402.65,-228 402.65,-240 402.65,-240 402.65,-246 396.65,-252 390.65,-252"/>
<text text-anchor="middle" x="340.65" y="-231.5" font-family="sans" font-size="10.00">GATK_MarkDuplicates</text>
</g>
<!-- 2&#45;&gt;1 -->
<g id="edge12" class="edge">
<title>2&#45;&gt;1</title>
<path fill="none" stroke="grey" stroke-width="2" d="M315.7,-215.88C302.61,-206.89 286.39,-195.76 272.21,-186.03"/>
<polygon fill="grey" stroke="grey" stroke-width="2" points="273.92,-182.96 263.7,-180.19 269.96,-188.73 273.92,-182.96"/>
</g>
<!-- 2&#45;&gt;11 -->
<g id="edge20" class="edge">
<title>2&#45;&gt;11</title>
<path fill="none" stroke="grey" stroke-width="2" d="M354.52,-215.87C374.64,-191.03 412.04,-144.85 435.29,-116.14"/>
<polygon fill="grey" stroke="grey" stroke-width="2" points="438.15,-118.16 441.73,-108.19 432.71,-113.76 438.15,-118.16"/>
</g>
<!-- 2&#45;&gt;13 -->
<g id="edge26" class="edge">
<title>2&#45;&gt;13</title>
<path fill="none" stroke="grey" stroke-width="2" d="M278.35,-218.77C248.12,-210.24 212.09,-197.58 182.65,-180 153.82,-162.79 126.47,-135.59 108.58,-115.79"/>
<polygon fill="grey" stroke="grey" stroke-width="2" points="110.99,-113.23 101.74,-108.07 105.75,-117.87 110.99,-113.23"/>
</g>
<!-- 2&#45;&gt;16 -->
<g id="edge32" class="edge">
<title>2&#45;&gt;16</title>
<path fill="none" stroke="grey" stroke-width="2" d="M333.96,-215.89C326.16,-197.17 312.1,-166.78 294.65,-144 286.53,-133.41 276.15,-123.17 266.41,-114.56"/>
<polygon fill="grey" stroke="grey" stroke-width="2" points="268.67,-111.89 258.8,-108.03 264.11,-117.2 268.67,-111.89"/>
</g>
<!-- 2&#45;&gt;18 -->
<g id="edge38" class="edge">
<title>2&#45;&gt;18</title>
<path fill="none" stroke="grey" stroke-width="2" d="M343.18,-215.87C346.76,-191.67 353.33,-147.21 357.6,-118.39"/>
<polygon fill="grey" stroke="grey" stroke-width="2" points="361.1,-118.59 359.11,-108.19 354.18,-117.57 361.1,-118.59"/>
</g>
<!-- 3 -->
<g id="node4" class="node">
<title>3</title>
<path fill="none" stroke="#56a9d8" stroke-width="2" d="M383.65,-324C383.65,-324 327.65,-324 327.65,-324 321.65,-324 315.65,-318 315.65,-312 315.65,-312 315.65,-300 315.65,-300 315.65,-294 321.65,-288 327.65,-288 327.65,-288 383.65,-288 383.65,-288 389.65,-288 395.65,-294 395.65,-300 395.65,-300 395.65,-312 395.65,-312 395.65,-318 389.65,-324 383.65,-324"/>
<text text-anchor="middle" x="355.65" y="-303.5" font-family="sans" font-size="10.00">bowtie2Align</text>
</g>
<!-- 3&#45;&gt;2 -->
<g id="edge13" class="edge">
<title>3&#45;&gt;2</title>
<path fill="none" stroke="grey" stroke-width="2" d="M351.94,-287.7C350.29,-279.98 348.3,-270.71 346.46,-262.11"/>
<polygon fill="grey" stroke="grey" stroke-width="2" points="349.83,-261.15 344.31,-252.1 342.99,-262.62 349.83,-261.15"/>
</g>
<!-- 4 -->
<g id="node5" class="node">
<title>4</title>
<path fill="none" stroke="#56d0d8" stroke-width="2" d="M392.65,-396C392.65,-396 318.65,-396 318.65,-396 312.65,-396 306.65,-390 306.65,-384 306.65,-384 306.65,-372 306.65,-372 306.65,-366 312.65,-360 318.65,-360 318.65,-360 392.65,-360 392.65,-360 398.65,-360 404.65,-366 404.65,-372 404.65,-372 404.65,-384 404.65,-384 404.65,-390 398.65,-396 392.65,-396"/>
<text text-anchor="middle" x="355.65" y="-381" font-family="sans" font-size="10.00">trimmomatic_pe</text>
<text text-anchor="middle" x="355.65" y="-370" font-family="sans" font-size="10.00">sample: A</text>
</g>
<!-- 4&#45;&gt;3 -->
<g id="edge14" class="edge">
<title>4&#45;&gt;3</title>
<path fill="none" stroke="grey" stroke-width="2" d="M355.65,-359.7C355.65,-351.98 355.65,-342.71 355.65,-334.11"/>
<polygon fill="grey" stroke="grey" stroke-width="2" points="359.15,-334.1 355.65,-324.1 352.15,-334.1 359.15,-334.1"/>
</g>
<!-- 5 -->
<g id="node6" class="node">
<title>5</title>
<path fill="none" stroke="#56d8b9" stroke-width="2" stroke-dasharray="5,2" d="M551.65,-396C551.65,-396 495.65,-396 495.65,-396 489.65,-396 483.65,-390 483.65,-384 483.65,-384 483.65,-372 483.65,-372 483.65,-366 489.65,-360 495.65,-360 495.65,-360 551.65,-360 551.65,-360 557.65,-360 563.65,-366 563.65,-372 563.65,-372 563.65,-384 563.65,-384 563.65,-390 557.65,-396 551.65,-396"/>
<text text-anchor="middle" x="523.65" y="-375.5" font-family="sans" font-size="10.00">bowtie2Build</text>
</g>
<!-- 5&#45;&gt;3 -->
<g id="edge15" class="edge">
<title>5&#45;&gt;3</title>
<path fill="none" stroke="grey" stroke-width="2" d="M483.41,-360.23C459.91,-350.44 430.07,-338.01 405.14,-327.62"/>
<polygon fill="grey" stroke="grey" stroke-width="2" points="406.43,-324.37 395.85,-323.75 403.73,-330.83 406.43,-324.37"/>
</g>
<!-- 8 -->
<g id="node9" class="node">
<title>8</title>
<path fill="none" stroke="#56a9d8" stroke-width="2" d="M688.65,-324C688.65,-324 632.65,-324 632.65,-324 626.65,-324 620.65,-318 620.65,-312 620.65,-312 620.65,-300 620.65,-300 620.65,-294 626.65,-288 632.65,-288 632.65,-288 688.65,-288 688.65,-288 694.65,-288 700.65,-294 700.65,-300 700.65,-300 700.65,-312 700.65,-312 700.65,-318 694.65,-324 688.65,-324"/>
<text text-anchor="middle" x="660.65" y="-303.5" font-family="sans" font-size="10.00">bowtie2Align</text>
</g>
<!-- 5&#45;&gt;8 -->
<g id="edge19" class="edge">
<title>5&#45;&gt;8</title>
<path fill="none" stroke="grey" stroke-width="2" d="M557.16,-359.88C575.49,-350.51 598.38,-338.81 617.98,-328.8"/>
<polygon fill="grey" stroke="grey" stroke-width="2" points="619.69,-331.86 627,-324.19 616.51,-325.62 619.69,-331.86"/>
</g>
<!-- 6 -->
<g id="node7" class="node">
<title>6</title>
<path fill="none" stroke="#56d86b" stroke-width="2" d="M812.65,-180C812.65,-180 742.65,-180 742.65,-180 736.65,-180 730.65,-174 730.65,-168 730.65,-168 730.65,-156 730.65,-156 730.65,-150 736.65,-144 742.65,-144 742.65,-144 812.65,-144 812.65,-144 818.65,-144 824.65,-150 824.65,-156 824.65,-156 824.65,-168 824.65,-168 824.65,-174 818.65,-180 812.65,-180"/>
<text text-anchor="middle" x="777.65" y="-159.5" font-family="sans" font-size="10.00">samtools_index</text>
</g>
<!-- 6&#45;&gt;0 -->
<g id="edge2" class="edge">
<title>6&#45;&gt;0</title>
<path fill="none" stroke="grey" stroke-width="2" d="M824.7,-153.71C851.85,-146.83 883.84,-133.54 900.65,-108 909.44,-94.63 911.03,-84.18 900.65,-72 863.28,-28.17 685.81,-20.43 607.23,-19.18"/>
<polygon fill="grey" stroke="grey" stroke-width="2" points="606.87,-15.67 596.83,-19.04 606.78,-22.67 606.87,-15.67"/>
</g>
<!-- 12 -->
<g id="node13" class="node">
<title>12</title>
<path fill="none" stroke="#d87d56" stroke-width="2" d="M1001.15,-108C1001.15,-108 960.15,-108 960.15,-108 954.15,-108 948.15,-102 948.15,-96 948.15,-96 948.15,-84 948.15,-84 948.15,-78 954.15,-72 960.15,-72 960.15,-72 1001.15,-72 1001.15,-72 1007.15,-72 1013.15,-78 1013.15,-84 1013.15,-84 1013.15,-96 1013.15,-96 1013.15,-102 1007.15,-108 1001.15,-108"/>
<text text-anchor="middle" x="980.65" y="-87.5" font-family="sans" font-size="10.00">freebayes</text>
</g>
<!-- 6&#45;&gt;12 -->
<g id="edge24" class="edge">
<title>6&#45;&gt;12</title>
<path fill="none" stroke="grey" stroke-width="2" d="M824.83,-145.24C855.82,-134.82 897.21,-120.78 933.65,-108 935.25,-107.44 936.89,-106.86 938.54,-106.28"/>
<polygon fill="grey" stroke="grey" stroke-width="2" points="939.82,-109.54 948.06,-102.88 937.47,-102.94 939.82,-109.54"/>
</g>
<!-- 15 -->
<g id="node16" class="node">
<title>15</title>
<path fill="none" stroke="#d8a456" stroke-width="2" d="M773.65,-108C773.65,-108 663.65,-108 663.65,-108 657.65,-108 651.65,-102 651.65,-96 651.65,-96 651.65,-84 651.65,-84 651.65,-78 657.65,-72 663.65,-72 663.65,-72 773.65,-72 773.65,-72 779.65,-72 785.65,-78 785.65,-84 785.65,-84 785.65,-96 785.65,-96 785.65,-102 779.65,-108 773.65,-108"/>
<text text-anchor="middle" x="718.65" y="-87.5" font-family="sans" font-size="10.00">GATK_DepthofCoverage</text>
</g>
<!-- 6&#45;&gt;15 -->
<g id="edge31" class="edge">
<title>6&#45;&gt;15</title>
<path fill="none" stroke="grey" stroke-width="2" d="M763.06,-143.7C755.99,-135.3 747.36,-125.07 739.6,-115.86"/>
<polygon fill="grey" stroke="grey" stroke-width="2" points="742.18,-113.49 733.06,-108.1 736.83,-118.01 742.18,-113.49"/>
</g>
<!-- 17 -->
<g id="node18" class="node">
<title>17</title>
<path fill="none" stroke="#56d892" stroke-width="2" d="M621.15,-108C621.15,-108 518.15,-108 518.15,-108 512.15,-108 506.15,-102 506.15,-96 506.15,-96 506.15,-84 506.15,-84 506.15,-78 512.15,-72 518.15,-72 518.15,-72 621.15,-72 621.15,-72 627.15,-72 633.15,-78 633.15,-84 633.15,-84 633.15,-96 633.15,-96 633.15,-102 627.15,-108 621.15,-108"/>
<text text-anchor="middle" x="569.65" y="-87.5" font-family="sans" font-size="10.00">GATK_HaplotypeCaller</text>
</g>
<!-- 6&#45;&gt;17 -->
<g id="edge37" class="edge">
<title>6&#45;&gt;17</title>
<path fill="none" stroke="grey" stroke-width="2" d="M730.45,-145.12C700.69,-135.1 661.97,-122.07 629.99,-111.31"/>
<polygon fill="grey" stroke="grey" stroke-width="2" points="630.89,-107.92 620.29,-108.04 628.65,-114.55 630.89,-107.92"/>
</g>
<!-- 19 -->
<g id="node20" class="node">
<title>19</title>
<path fill="none" stroke="#b6d856" stroke-width="2" d="M879.15,-108C879.15,-108 816.15,-108 816.15,-108 810.15,-108 804.15,-102 804.15,-96 804.15,-96 804.15,-84 804.15,-84 804.15,-78 810.15,-72 816.15,-72 816.15,-72 879.15,-72 879.15,-72 885.15,-72 891.15,-78 891.15,-84 891.15,-84 891.15,-96 891.15,-96 891.15,-102 885.15,-108 879.15,-108"/>
<text text-anchor="middle" x="847.65" y="-87.5" font-family="sans" font-size="10.00">GATK_Mutect2</text>
</g>
<!-- 6&#45;&gt;19 -->
<g id="edge43" class="edge">
<title>6&#45;&gt;19</title>
<path fill="none" stroke="grey" stroke-width="2" d="M794.95,-143.7C803.51,-135.14 813.99,-124.66 823.34,-115.3"/>
<polygon fill="grey" stroke="grey" stroke-width="2" points="825.95,-117.65 830.54,-108.1 821,-112.7 825.95,-117.65"/>
</g>
<!-- 7 -->
<g id="node8" class="node">
<title>7</title>
<path fill="none" stroke="#d85656" stroke-width="2" d="M789.65,-252C789.65,-252 689.65,-252 689.65,-252 683.65,-252 677.65,-246 677.65,-240 677.65,-240 677.65,-228 677.65,-228 677.65,-222 683.65,-216 689.65,-216 689.65,-216 789.65,-216 789.65,-216 795.65,-216 801.65,-222 801.65,-228 801.65,-228 801.65,-240 801.65,-240 801.65,-246 795.65,-252 789.65,-252"/>
<text text-anchor="middle" x="739.65" y="-231.5" font-family="sans" font-size="10.00">GATK_MarkDuplicates</text>
</g>
<!-- 7&#45;&gt;6 -->
<g id="edge16" class="edge">
<title>7&#45;&gt;6</title>
<path fill="none" stroke="grey" stroke-width="2" d="M749.04,-215.7C753.41,-207.64 758.7,-197.89 763.54,-188.98"/>
<polygon fill="grey" stroke="grey" stroke-width="2" points="766.67,-190.56 768.36,-180.1 760.52,-187.22 766.67,-190.56"/>
</g>
<!-- 7&#45;&gt;12 -->
<g id="edge23" class="edge">
<title>7&#45;&gt;12</title>
<path fill="none" stroke="grey" stroke-width="2" d="M780.89,-215.93C802.95,-206.28 830.3,-193.47 853.65,-180 888.22,-160.06 925.34,-133.37 950.46,-114.43"/>
<polygon fill="grey" stroke="grey" stroke-width="2" points="952.65,-117.16 958.5,-108.33 948.42,-111.59 952.65,-117.16"/>
</g>
<!-- 7&#45;&gt;15 -->
<g id="edge29" class="edge">
<title>7&#45;&gt;15</title>
<path fill="none" stroke="grey" stroke-width="2" d="M732.32,-215.68C728.38,-205.49 723.88,-192.24 721.65,-180 717.92,-159.6 717.28,-136.14 717.51,-118.43"/>
<polygon fill="grey" stroke="grey" stroke-width="2" points="721.01,-118.3 717.74,-108.22 714.01,-118.14 721.01,-118.3"/>
</g>
<!-- 7&#45;&gt;17 -->
<g id="edge35" class="edge">
<title>7&#45;&gt;17</title>
<path fill="none" stroke="grey" stroke-width="2" d="M719.14,-215.87C688.89,-190.6 632.21,-143.25 598,-114.68"/>
<polygon fill="grey" stroke="grey" stroke-width="2" points="600.14,-111.91 590.23,-108.19 595.66,-117.29 600.14,-111.91"/>
</g>
<!-- 7&#45;&gt;19 -->
<g id="edge41" class="edge">
<title>7&#45;&gt;19</title>
<path fill="none" stroke="grey" stroke-width="2" d="M788.45,-215.82C805.28,-207.53 822.64,-195.85 833.65,-180 846.16,-161.98 849.16,-136.99 849.32,-118.08"/>
<polygon fill="grey" stroke="grey" stroke-width="2" points="852.82,-117.95 849.15,-108.01 845.82,-118.07 852.82,-117.95"/>
</g>
<!-- 8&#45;&gt;7 -->
<g id="edge17" class="edge">
<title>8&#45;&gt;7</title>
<path fill="none" stroke="grey" stroke-width="2" d="M680.18,-287.7C690.03,-278.97 702.13,-268.24 712.84,-258.75"/>
<polygon fill="grey" stroke="grey" stroke-width="2" points="715.18,-261.36 720.34,-252.1 710.54,-256.12 715.18,-261.36"/>
</g>
<!-- 9 -->
<g id="node10" class="node">
<title>9</title>
<path fill="none" stroke="#56d0d8" stroke-width="2" d="M697.65,-396C697.65,-396 623.65,-396 623.65,-396 617.65,-396 611.65,-390 611.65,-384 611.65,-384 611.65,-372 611.65,-372 611.65,-366 617.65,-360 623.65,-360 623.65,-360 697.65,-360 697.65,-360 703.65,-360 709.65,-366 709.65,-372 709.65,-372 709.65,-384 709.65,-384 709.65,-390 703.65,-396 697.65,-396"/>
<text text-anchor="middle" x="660.65" y="-381" font-family="sans" font-size="10.00">trimmomatic_pe</text>
<text text-anchor="middle" x="660.65" y="-370" font-family="sans" font-size="10.00">sample: B</text>
</g>
<!-- 9&#45;&gt;8 -->
<g id="edge18" class="edge">
<title>9&#45;&gt;8</title>
<path fill="none" stroke="grey" stroke-width="2" d="M660.65,-359.7C660.65,-351.98 660.65,-342.71 660.65,-334.11"/>
<polygon fill="grey" stroke="grey" stroke-width="2" points="664.15,-334.1 660.65,-324.1 657.15,-334.1 664.15,-334.1"/>
</g>
<!-- 10 -->
<g id="node11" class="node">
<title>10</title>
<path fill="none" stroke="#8fd856" stroke-width="2" stroke-dasharray="5,2" d="M1014.65,-180C1014.65,-180 946.65,-180 946.65,-180 940.65,-180 934.65,-174 934.65,-168 934.65,-168 934.65,-156 934.65,-156 934.65,-150 940.65,-144 946.65,-144 946.65,-144 1014.65,-144 1014.65,-144 1020.65,-144 1026.65,-150 1026.65,-156 1026.65,-156 1026.65,-168 1026.65,-168 1026.65,-174 1020.65,-180 1014.65,-180"/>
<text text-anchor="middle" x="980.65" y="-159.5" font-family="sans" font-size="10.00">samtools_faidx</text>
</g>
<!-- 10&#45;&gt;0 -->
<g id="edge3" class="edge">
<title>10&#45;&gt;0</title>
<path fill="none" stroke="grey" stroke-width="2" d="M999.22,-143.94C1017.96,-124.7 1041.61,-93.32 1022.65,-72 995.14,-41.08 710.43,-25.31 606.96,-20.57"/>
<polygon fill="grey" stroke="grey" stroke-width="2" points="607.11,-17.08 596.96,-20.12 606.8,-24.07 607.11,-17.08"/>
</g>
<!-- 10&#45;&gt;11 -->
<g id="edge22" class="edge">
<title>10&#45;&gt;11</title>
<path fill="none" stroke="grey" stroke-width="2" d="M934.64,-155.58C905.67,-152.19 867.48,-147.77 833.65,-144 687.59,-127.73 645.14,-143.81 498.2,-107.7"/>
<polygon fill="grey" stroke="grey" stroke-width="2" points="498.92,-104.28 488.37,-105.25 497.23,-111.07 498.92,-104.28"/>
</g>
<!-- 10&#45;&gt;12 -->
<g id="edge25" class="edge">
<title>10&#45;&gt;12</title>
<path fill="none" stroke="grey" stroke-width="2" d="M980.65,-143.7C980.65,-135.98 980.65,-126.71 980.65,-118.11"/>
<polygon fill="grey" stroke="grey" stroke-width="2" points="984.15,-118.1 980.65,-108.1 977.15,-118.1 984.15,-118.1"/>
</g>
<!-- 11&#45;&gt;0 -->
<g id="edge4" class="edge">
<title>11&#45;&gt;0</title>
<path fill="none" stroke="grey" stroke-width="2" d="M483.53,-71.88C498.66,-62.59 517.53,-51 533.75,-41.04"/>
<polygon fill="grey" stroke="grey" stroke-width="2" points="535.75,-43.92 542.44,-35.71 532.09,-37.96 535.75,-43.92"/>
</g>
<!-- 12&#45;&gt;0 -->
<g id="edge5" class="edge">
<title>12&#45;&gt;0</title>
<path fill="none" stroke="grey" stroke-width="2" d="M948.04,-76.25C943.26,-74.66 938.36,-73.18 933.65,-72 816.35,-42.57 673.41,-27.68 606.95,-21.92"/>
<polygon fill="grey" stroke="grey" stroke-width="2" points="607.21,-18.43 596.95,-21.07 606.62,-25.41 607.21,-18.43"/>
</g>
<!-- 13&#45;&gt;0 -->
<g id="edge6" class="edge">
<title>13&#45;&gt;0</title>
<path fill="none" stroke="grey" stroke-width="2" d="M154.77,-73.82C158.11,-73.18 161.41,-72.57 164.65,-72 299.18,-48.39 460.54,-30.31 532.2,-22.8"/>
<polygon fill="grey" stroke="grey" stroke-width="2" points="532.92,-26.24 542.51,-21.72 532.2,-19.28 532.92,-26.24"/>
</g>
<!-- 14 -->
<g id="node15" class="node">
<title>14</title>
<path fill="none" stroke="#567bd8" stroke-width="2" stroke-dasharray="5,2" d="M548.15,-180C548.15,-180 483.15,-180 483.15,-180 477.15,-180 471.15,-174 471.15,-168 471.15,-168 471.15,-156 471.15,-156 471.15,-150 477.15,-144 483.15,-144 483.15,-144 548.15,-144 548.15,-144 554.15,-144 560.15,-150 560.15,-156 560.15,-156 560.15,-168 560.15,-168 560.15,-174 554.15,-180 548.15,-180"/>
<text text-anchor="middle" x="515.65" y="-159.5" font-family="sans" font-size="10.00">picard_SeqDict</text>
</g>
<!-- 14&#45;&gt;13 -->
<g id="edge27" class="edge">
<title>14&#45;&gt;13</title>
<path fill="none" stroke="grey" stroke-width="2" d="M470.88,-155.22C404.01,-146.38 274.17,-128.33 164.65,-108 164.55,-107.98 164.45,-107.96 164.34,-107.94"/>
<polygon fill="grey" stroke="grey" stroke-width="2" points="165.27,-104.56 154.78,-106.1 163.94,-111.43 165.27,-104.56"/>
</g>
<!-- 14&#45;&gt;15 -->
<g id="edge30" class="edge">
<title>14&#45;&gt;15</title>
<path fill="none" stroke="grey" stroke-width="2" d="M560.2,-145.64C589.39,-135.57 627.87,-122.3 659.61,-111.36"/>
<polygon fill="grey" stroke="grey" stroke-width="2" points="660.91,-114.61 669.22,-108.04 658.62,-108 660.91,-114.61"/>
</g>
<!-- 14&#45;&gt;16 -->
<g id="edge33" class="edge">
<title>14&#45;&gt;16</title>
<path fill="none" stroke="grey" stroke-width="2" d="M471.13,-149.83C427.86,-138.97 361.37,-122.29 310.23,-109.46"/>
<polygon fill="grey" stroke="grey" stroke-width="2" points="310.77,-105.99 300.22,-106.95 309.07,-112.78 310.77,-105.99"/>
</g>
<!-- 14&#45;&gt;17 -->
<g id="edge36" class="edge">
<title>14&#45;&gt;17</title>
<path fill="none" stroke="grey" stroke-width="2" d="M529,-143.7C535.4,-135.39 543.2,-125.28 550.25,-116.14"/>
<polygon fill="grey" stroke="grey" stroke-width="2" points="553.12,-118.16 556.45,-108.1 547.57,-113.88 553.12,-118.16"/>
</g>
<!-- 14&#45;&gt;18 -->
<g id="edge39" class="edge">
<title>14&#45;&gt;18</title>
<path fill="none" stroke="grey" stroke-width="2" d="M477.97,-143.88C457.02,-134.35 430.74,-122.41 408.47,-112.28"/>
<polygon fill="grey" stroke="grey" stroke-width="2" points="409.75,-109.02 399.2,-108.07 406.85,-115.39 409.75,-109.02"/>
</g>
<!-- 14&#45;&gt;19 -->
<g id="edge42" class="edge">
<title>14&#45;&gt;19</title>
<path fill="none" stroke="grey" stroke-width="2" d="M560.47,-154.22C613.9,-145.76 705.98,-129.98 794.2,-107.94"/>
<polygon fill="grey" stroke="grey" stroke-width="2" points="795.26,-111.28 804.1,-105.44 793.54,-104.49 795.26,-111.28"/>
</g>
<!-- 15&#45;&gt;0 -->
<g id="edge7" class="edge">
<title>15&#45;&gt;0</title>
<path fill="none" stroke="grey" stroke-width="2" d="M682.2,-71.88C659.03,-60.99 629.14,-46.95 605.99,-36.07"/>
<polygon fill="grey" stroke="grey" stroke-width="2" points="607.38,-32.86 596.84,-31.78 604.4,-39.2 607.38,-32.86"/>
</g>
<!-- 16&#45;&gt;0 -->
<g id="edge8" class="edge">
<title>16&#45;&gt;0</title>
<path fill="none" stroke="grey" stroke-width="2" d="M300.33,-74.06C303.48,-73.36 306.6,-72.67 309.65,-72 388.85,-54.71 482.03,-36.14 532.54,-26.23"/>
<polygon fill="grey" stroke="grey" stroke-width="2" points="533.51,-29.61 542.65,-24.25 532.16,-22.74 533.51,-29.61"/>
</g>
<!-- 17&#45;&gt;0 -->
<g id="edge9" class="edge">
<title>17&#45;&gt;0</title>
<path fill="none" stroke="grey" stroke-width="2" d="M569.65,-71.7C569.65,-63.98 569.65,-54.71 569.65,-46.11"/>
<polygon fill="grey" stroke="grey" stroke-width="2" points="573.15,-46.1 569.65,-36.1 566.15,-46.1 573.15,-46.1"/>
</g>
<!-- 18&#45;&gt;0 -->
<g id="edge10" class="edge">
<title>18&#45;&gt;0</title>
<path fill="none" stroke="grey" stroke-width="2" d="M405.25,-74.33C443.14,-61.57 497.41,-43.31 533.07,-31.31"/>
<polygon fill="grey" stroke="grey" stroke-width="2" points="534.25,-34.61 542.61,-28.1 532.02,-27.97 534.25,-34.61"/>
</g>
<!-- 19&#45;&gt;0 -->
<g id="edge11" class="edge">
<title>19&#45;&gt;0</title>
<path fill="none" stroke="grey" stroke-width="2" d="M804.06,-74.72C800.88,-73.77 797.72,-72.85 794.65,-72 729,-53.77 651.47,-36.41 606.69,-26.78"/>
<polygon fill="grey" stroke="grey" stroke-width="2" points="607.35,-23.35 596.84,-24.68 605.89,-30.19 607.35,-23.35"/>
</g>
</g>
</svg>
