<?xml version="1.0" encoding="UTF-8" standalone="no"?>
<!DOCTYPE svg PUBLIC "-//W3C//DTD SVG 1.1//EN"
 "http://www.w3.org/Graphics/SVG/1.1/DTD/svg11.dtd">
<!-- Generated by graphviz version 2.42.3 (20191010.1750)
 -->
<!-- Title: snakemake_dag Pages: 1 -->
<svg width="1038pt" height="548pt"
 viewBox="0.00 0.00 1037.75 548.00" xmlns="http://www.w3.org/2000/svg" xmlns:xlink="http://www.w3.org/1999/xlink">
<g id="graph0" class="graph" transform="scale(1 1) rotate(0) translate(4 544)">
<title>snakemake_dag</title>
<polygon fill="white" stroke="transparent" points="-4,4 -4,-544 1033.75,-544 1033.75,4 -4,4"/>
<!-- 0 -->
<g id="node1" class="node">
<title>0</title>
<path fill="none" stroke="#56d88a" stroke-width="2" stroke-dasharray="5,2" d="M472,-36C472,-36 442,-36 442,-36 436,-36 430,-30 430,-24 430,-24 430,-12 430,-12 430,-6 436,0 442,0 442,0 472,0 472,0 478,0 484,-6 484,-12 484,-12 484,-24 484,-24 484,-30 478,-36 472,-36"/>
<text text-anchor="middle" x="457" y="-15.5" font-family="sans" font-size="10.00">all</text>
</g>
<!-- 1 -->
<g id="node2" class="node">
<title>1</title>
<path fill="none" stroke="#56c1d8" stroke-width="2" stroke-dasharray="5,2" d="M268,-252C268,-252 198,-252 198,-252 192,-252 186,-246 186,-240 186,-240 186,-228 186,-228 186,-222 192,-216 198,-216 198,-216 268,-216 268,-216 274,-216 280,-222 280,-228 280,-228 280,-240 280,-240 280,-246 274,-252 268,-252"/>
<text text-anchor="middle" x="233" y="-231.5" font-family="sans" font-size="10.00">samtools_index</text>
</g>
<!-- 1&#45;&gt;0 -->
<g id="edge1" class="edge">
<title>1&#45;&gt;0</title>
<path fill="none" stroke="grey" stroke-width="2" d="M228.92,-215.87C225.39,-196.85 222.7,-165.95 236,-144 276.91,-76.5 368.71,-42.27 420.2,-27.79"/>
<polygon fill="grey" stroke="grey" stroke-width="2" points="421.2,-31.15 429.93,-25.16 419.37,-24.39 421.2,-31.15"/>
</g>
<!-- 13 -->
<g id="node14" class="node">
<title>13</title>
<path fill="none" stroke="#88d856" stroke-width="2" stroke-dasharray="5,2" d="M512,-180C512,-180 402,-180 402,-180 396,-180 390,-174 390,-168 390,-168 390,-156 390,-156 390,-150 396,-144 402,-144 402,-144 512,-144 512,-144 518,-144 524,-150 524,-156 524,-156 524,-168 524,-168 524,-174 518,-180 512,-180"/>
<text text-anchor="middle" x="457" y="-159.5" font-family="sans" font-size="10.00">GATK_DepthofCoverage</text>
</g>
<!-- 1&#45;&gt;13 -->
<g id="edge20" class="edge">
<title>1&#45;&gt;13</title>
<path fill="none" stroke="grey" stroke-width="2" d="M280.23,-218.24C312.85,-208.05 356.63,-194.37 392.46,-183.17"/>
<polygon fill="grey" stroke="grey" stroke-width="2" points="393.84,-186.4 402.34,-180.08 391.75,-179.72 393.84,-186.4"/>
</g>
<!-- 17 -->
<g id="node18" class="node">
<title>17</title>
<path fill="none" stroke="#56d8d0" stroke-width="2" stroke-dasharray="5,2" d="M70.5,-180C70.5,-180 29.5,-180 29.5,-180 23.5,-180 17.5,-174 17.5,-168 17.5,-168 17.5,-156 17.5,-156 17.5,-150 23.5,-144 29.5,-144 29.5,-144 70.5,-144 70.5,-144 76.5,-144 82.5,-150 82.5,-156 82.5,-156 82.5,-168 82.5,-168 82.5,-174 76.5,-180 70.5,-180"/>
<text text-anchor="middle" x="50" y="-159.5" font-family="sans" font-size="10.00">freebayes</text>
</g>
<!-- 1&#45;&gt;17 -->
<g id="edge28" class="edge">
<title>1&#45;&gt;17</title>
<path fill="none" stroke="grey" stroke-width="2" d="M186.15,-215.99C160.67,-206.63 128.41,-194.61 92.38,-180.49"/>
<polygon fill="grey" stroke="grey" stroke-width="2" points="93.22,-177.06 82.63,-176.65 90.65,-183.57 93.22,-177.06"/>
</g>
<!-- 18 -->
<g id="node19" class="node">
<title>18</title>
<path fill="none" stroke="#569ad8" stroke-width="2" stroke-dasharray="5,2" d="M359.5,-180C359.5,-180 256.5,-180 256.5,-180 250.5,-180 244.5,-174 244.5,-168 244.5,-168 244.5,-156 244.5,-156 244.5,-150 250.5,-144 256.5,-144 256.5,-144 359.5,-144 359.5,-144 365.5,-144 371.5,-150 371.5,-156 371.5,-156 371.5,-168 371.5,-168 371.5,-174 365.5,-180 359.5,-180"/>
<text text-anchor="middle" x="308" y="-159.5" font-family="sans" font-size="10.00">GATK_HaplotypeCaller</text>
</g>
<!-- 1&#45;&gt;18 -->
<g id="edge32" class="edge">
<title>1&#45;&gt;18</title>
<path fill="none" stroke="grey" stroke-width="2" d="M251.54,-215.7C260.8,-207.05 272.16,-196.45 282.26,-187.03"/>
<polygon fill="grey" stroke="grey" stroke-width="2" points="284.75,-189.49 289.67,-180.1 279.98,-184.37 284.75,-189.49"/>
</g>
<!-- 19 -->
<g id="node20" class="node">
<title>19</title>
<path fill="none" stroke="#ced856" stroke-width="2" stroke-dasharray="5,2" d="M175.5,-180C175.5,-180 112.5,-180 112.5,-180 106.5,-180 100.5,-174 100.5,-168 100.5,-168 100.5,-156 100.5,-156 100.5,-150 106.5,-144 112.5,-144 112.5,-144 175.5,-144 175.5,-144 181.5,-144 187.5,-150 187.5,-156 187.5,-156 187.5,-168 187.5,-168 187.5,-174 181.5,-180 175.5,-180"/>
<text text-anchor="middle" x="144" y="-159.5" font-family="sans" font-size="10.00">GATK_Mutect2</text>
</g>
<!-- 1&#45;&gt;19 -->
<g id="edge35" class="edge">
<title>1&#45;&gt;19</title>
<path fill="none" stroke="grey" stroke-width="2" d="M211,-215.7C199.79,-206.88 186,-196.03 173.85,-186.47"/>
<polygon fill="grey" stroke="grey" stroke-width="2" points="175.77,-183.54 165.75,-180.1 171.44,-189.04 175.77,-183.54"/>
</g>
<!-- 2 -->
<g id="node3" class="node">
<title>2</title>
<path fill="none" stroke="#567bd8" stroke-width="2" stroke-dasharray="5,2" d="M321,-324C321,-324 221,-324 221,-324 215,-324 209,-318 209,-312 209,-312 209,-300 209,-300 209,-294 215,-288 221,-288 221,-288 321,-288 321,-288 327,-288 333,-294 333,-300 333,-300 333,-312 333,-312 333,-318 327,-324 321,-324"/>
<text text-anchor="middle" x="271" y="-303.5" font-family="sans" font-size="10.00">GATK_MarkDuplicates</text>
</g>
<!-- 2&#45;&gt;1 -->
<g id="edge8" class="edge">
<title>2&#45;&gt;1</title>
<path fill="none" stroke="grey" stroke-width="2" d="M261.61,-287.7C257.24,-279.64 251.94,-269.89 247.1,-260.98"/>
<polygon fill="grey" stroke="grey" stroke-width="2" points="250.13,-259.22 242.29,-252.1 243.98,-262.56 250.13,-259.22"/>
</g>
<!-- 2&#45;&gt;13 -->
<g id="edge18" class="edge">
<title>2&#45;&gt;13</title>
<path fill="none" stroke="grey" stroke-width="2" d="M293.44,-287.87C326.67,-262.5 389.08,-214.85 426.46,-186.32"/>
<polygon fill="grey" stroke="grey" stroke-width="2" points="428.66,-189.04 434.48,-180.19 424.41,-183.48 428.66,-189.04"/>
</g>
<!-- 2&#45;&gt;17 -->
<g id="edge27" class="edge">
<title>2&#45;&gt;17</title>
<path fill="none" stroke="grey" stroke-width="2" d="M224.15,-287.92C201.53,-278.74 174.49,-266.36 152,-252 122.8,-233.35 93.4,-206.67 73.72,-187.38"/>
<polygon fill="grey" stroke="grey" stroke-width="2" points="75.98,-184.7 66.42,-180.13 71.05,-189.66 75.98,-184.7"/>
</g>
<!-- 2&#45;&gt;18 -->
<g id="edge30" class="edge">
<title>2&#45;&gt;18</title>
<path fill="none" stroke="grey" stroke-width="2" d="M277.35,-287.97C281.05,-277.66 285.64,-264.18 289,-252 294.63,-231.57 299.58,-208.11 303.01,-190.4"/>
<polygon fill="grey" stroke="grey" stroke-width="2" points="306.52,-190.68 304.95,-180.21 299.64,-189.38 306.52,-190.68"/>
</g>
<!-- 2&#45;&gt;19 -->
<g id="edge33" class="edge">
<title>2&#45;&gt;19</title>
<path fill="none" stroke="grey" stroke-width="2" d="M226.24,-287.77C208.91,-279.23 190.13,-267.39 177,-252 161.93,-234.33 153.45,-209.15 148.88,-190.08"/>
<polygon fill="grey" stroke="grey" stroke-width="2" points="152.27,-189.22 146.72,-180.2 145.43,-190.72 152.27,-189.22"/>
</g>
<!-- 3 -->
<g id="node4" class="node">
<title>3</title>
<path fill="none" stroke="#68d856" stroke-width="2" stroke-dasharray="5,2" d="M372,-396C372,-396 316,-396 316,-396 310,-396 304,-390 304,-384 304,-384 304,-372 304,-372 304,-366 310,-360 316,-360 316,-360 372,-360 372,-360 378,-360 384,-366 384,-372 384,-372 384,-384 384,-384 384,-390 378,-396 372,-396"/>
<text text-anchor="middle" x="344" y="-375.5" font-family="sans" font-size="10.00">bowtie2Align</text>
</g>
<!-- 3&#45;&gt;2 -->
<g id="edge9" class="edge">
<title>3&#45;&gt;2</title>
<path fill="none" stroke="grey" stroke-width="2" d="M325.96,-359.7C316.94,-351.05 305.88,-340.45 296.06,-331.03"/>
<polygon fill="grey" stroke="grey" stroke-width="2" points="298.48,-328.5 288.84,-324.1 293.63,-333.55 298.48,-328.5"/>
</g>
<!-- 4 -->
<g id="node5" class="node">
<title>4</title>
<path fill="none" stroke="#56d8a9" stroke-width="2" stroke-dasharray="5,2" d="M381,-468C381,-468 307,-468 307,-468 301,-468 295,-462 295,-456 295,-456 295,-444 295,-444 295,-438 301,-432 307,-432 307,-432 381,-432 381,-432 387,-432 393,-438 393,-444 393,-444 393,-456 393,-456 393,-462 387,-468 381,-468"/>
<text text-anchor="middle" x="344" y="-447.5" font-family="sans" font-size="10.00">trimmomatic_pe</text>
</g>
<!-- 4&#45;&gt;3 -->
<g id="edge10" class="edge">
<title>4&#45;&gt;3</title>
<path fill="none" stroke="grey" stroke-width="2" d="M344,-431.7C344,-423.98 344,-414.71 344,-406.11"/>
<polygon fill="grey" stroke="grey" stroke-width="2" points="347.5,-406.1 344,-396.1 340.5,-406.1 347.5,-406.1"/>
</g>
<!-- 5 -->
<g id="node6" class="node">
<title>5</title>
<path fill="none" stroke="#d8bc56" stroke-width="2" stroke-dasharray="5,2" d="M379.5,-540C379.5,-540 308.5,-540 308.5,-540 302.5,-540 296.5,-534 296.5,-528 296.5,-528 296.5,-516 296.5,-516 296.5,-510 302.5,-504 308.5,-504 308.5,-504 379.5,-504 379.5,-504 385.5,-504 391.5,-510 391.5,-516 391.5,-516 391.5,-528 391.5,-528 391.5,-534 385.5,-540 379.5,-540"/>
<text text-anchor="middle" x="344" y="-525" font-family="sans" font-size="10.00">Remove_human</text>
<text text-anchor="middle" x="344" y="-514" font-family="sans" font-size="10.00">sample: A</text>
</g>
<!-- 5&#45;&gt;4 -->
<g id="edge12" class="edge">
<title>5&#45;&gt;4</title>
<path fill="none" stroke="grey" stroke-width="2" d="M344,-503.7C344,-495.98 344,-486.71 344,-478.11"/>
<polygon fill="grey" stroke="grey" stroke-width="2" points="347.5,-478.1 344,-468.1 340.5,-478.1 347.5,-478.1"/>
</g>
<!-- 6 -->
<g id="node7" class="node">
<title>6</title>
<path fill="none" stroke="#d89c56" stroke-width="2" stroke-dasharray="5,2" d="M516,-468C516,-468 460,-468 460,-468 454,-468 448,-462 448,-456 448,-456 448,-444 448,-444 448,-438 454,-432 460,-432 460,-432 516,-432 516,-432 522,-432 528,-438 528,-444 528,-444 528,-456 528,-456 528,-462 522,-468 516,-468"/>
<text text-anchor="middle" x="488" y="-447.5" font-family="sans" font-size="10.00">bowtie2Build</text>
</g>
<!-- 6&#45;&gt;3 -->
<g id="edge11" class="edge">
<title>6&#45;&gt;3</title>
<path fill="none" stroke="grey" stroke-width="2" d="M452.77,-431.88C433.42,-422.47 409.23,-410.71 388.57,-400.67"/>
<polygon fill="grey" stroke="grey" stroke-width="2" points="389.89,-397.41 379.36,-396.19 386.83,-403.71 389.89,-397.41"/>
</g>
<!-- 9 -->
<g id="node10" class="node">
<title>9</title>
<path fill="none" stroke="#68d856" stroke-width="2" stroke-dasharray="5,2" d="M641,-396C641,-396 585,-396 585,-396 579,-396 573,-390 573,-384 573,-384 573,-372 573,-372 573,-366 579,-360 585,-360 585,-360 641,-360 641,-360 647,-360 653,-366 653,-372 653,-372 653,-384 653,-384 653,-390 647,-396 641,-396"/>
<text text-anchor="middle" x="613" y="-375.5" font-family="sans" font-size="10.00">bowtie2Align</text>
</g>
<!-- 6&#45;&gt;9 -->
<g id="edge16" class="edge">
<title>6&#45;&gt;9</title>
<path fill="none" stroke="grey" stroke-width="2" d="M518.58,-431.88C535.07,-422.64 555.62,-411.13 573.34,-401.21"/>
<polygon fill="grey" stroke="grey" stroke-width="2" points="575.29,-404.13 582.3,-396.19 571.87,-398.02 575.29,-404.13"/>
</g>
<!-- 7 -->
<g id="node8" class="node">
<title>7</title>
<path fill="none" stroke="#56c1d8" stroke-width="2" stroke-dasharray="5,2" d="M800,-252C800,-252 730,-252 730,-252 724,-252 718,-246 718,-240 718,-240 718,-228 718,-228 718,-222 724,-216 730,-216 730,-216 800,-216 800,-216 806,-216 812,-222 812,-228 812,-228 812,-240 812,-240 812,-246 806,-252 800,-252"/>
<text text-anchor="middle" x="765" y="-231.5" font-family="sans" font-size="10.00">samtools_index</text>
</g>
<!-- 7&#45;&gt;0 -->
<g id="edge2" class="edge">
<title>7&#45;&gt;0</title>
<path fill="none" stroke="grey" stroke-width="2" d="M812.2,-232.51C899.9,-229.92 1074.26,-215.86 1019,-144 954.23,-59.77 609.4,-29.23 494.38,-21.3"/>
<polygon fill="grey" stroke="grey" stroke-width="2" points="494.5,-17.8 484.29,-20.62 494.03,-24.78 494.5,-17.8"/>
</g>
<!-- 15 -->
<g id="node16" class="node">
<title>15</title>
<path fill="none" stroke="#88d856" stroke-width="2" stroke-dasharray="5,2" d="M998,-180C998,-180 888,-180 888,-180 882,-180 876,-174 876,-168 876,-168 876,-156 876,-156 876,-150 882,-144 888,-144 888,-144 998,-144 998,-144 1004,-144 1010,-150 1010,-156 1010,-156 1010,-168 1010,-168 1010,-174 1004,-180 998,-180"/>
<text text-anchor="middle" x="943" y="-159.5" font-family="sans" font-size="10.00">GATK_DepthofCoverage</text>
</g>
<!-- 7&#45;&gt;15 -->
<g id="edge23" class="edge">
<title>7&#45;&gt;15</title>
<path fill="none" stroke="grey" stroke-width="2" d="M808.54,-215.88C833.2,-206.18 864.22,-193.98 890.25,-183.74"/>
<polygon fill="grey" stroke="grey" stroke-width="2" points="891.57,-186.99 899.6,-180.07 889.01,-180.47 891.57,-186.99"/>
</g>
<!-- 21 -->
<g id="node22" class="node">
<title>21</title>
<path fill="none" stroke="#56d8d0" stroke-width="2" stroke-dasharray="5,2" d="M595.5,-180C595.5,-180 554.5,-180 554.5,-180 548.5,-180 542.5,-174 542.5,-168 542.5,-168 542.5,-156 542.5,-156 542.5,-150 548.5,-144 554.5,-144 554.5,-144 595.5,-144 595.5,-144 601.5,-144 607.5,-150 607.5,-156 607.5,-156 607.5,-168 607.5,-168 607.5,-174 601.5,-180 595.5,-180"/>
<text text-anchor="middle" x="575" y="-159.5" font-family="sans" font-size="10.00">freebayes</text>
</g>
<!-- 7&#45;&gt;21 -->
<g id="edge40" class="edge">
<title>7&#45;&gt;21</title>
<path fill="none" stroke="grey" stroke-width="2" d="M717.83,-216.66C688.67,-206.42 650.53,-192.79 617,-180 616.9,-179.96 616.81,-179.93 616.71,-179.89"/>
<polygon fill="grey" stroke="grey" stroke-width="2" points="618.1,-176.67 607.51,-176.31 615.56,-183.2 618.1,-176.67"/>
</g>
<!-- 22 -->
<g id="node23" class="node">
<title>22</title>
<path fill="none" stroke="#569ad8" stroke-width="2" stroke-dasharray="5,2" d="M845.5,-180C845.5,-180 742.5,-180 742.5,-180 736.5,-180 730.5,-174 730.5,-168 730.5,-168 730.5,-156 730.5,-156 730.5,-150 736.5,-144 742.5,-144 742.5,-144 845.5,-144 845.5,-144 851.5,-144 857.5,-150 857.5,-156 857.5,-156 857.5,-168 857.5,-168 857.5,-174 851.5,-180 845.5,-180"/>
<text text-anchor="middle" x="794" y="-159.5" font-family="sans" font-size="10.00">GATK_HaplotypeCaller</text>
</g>
<!-- 7&#45;&gt;22 -->
<g id="edge44" class="edge">
<title>7&#45;&gt;22</title>
<path fill="none" stroke="grey" stroke-width="2" d="M772.17,-215.7C775.43,-207.81 779.37,-198.3 783,-189.55"/>
<polygon fill="grey" stroke="grey" stroke-width="2" points="786.32,-190.68 786.91,-180.1 779.85,-188 786.32,-190.68"/>
</g>
<!-- 23 -->
<g id="node24" class="node">
<title>23</title>
<path fill="none" stroke="#ced856" stroke-width="2" stroke-dasharray="5,2" d="M700.5,-180C700.5,-180 637.5,-180 637.5,-180 631.5,-180 625.5,-174 625.5,-168 625.5,-168 625.5,-156 625.5,-156 625.5,-150 631.5,-144 637.5,-144 637.5,-144 700.5,-144 700.5,-144 706.5,-144 712.5,-150 712.5,-156 712.5,-156 712.5,-168 712.5,-168 712.5,-174 706.5,-180 700.5,-180"/>
<text text-anchor="middle" x="669" y="-159.5" font-family="sans" font-size="10.00">GATK_Mutect2</text>
</g>
<!-- 7&#45;&gt;23 -->
<g id="edge47" class="edge">
<title>7&#45;&gt;23</title>
<path fill="none" stroke="grey" stroke-width="2" d="M741.27,-215.7C729.06,-206.8 714.01,-195.82 700.82,-186.2"/>
<polygon fill="grey" stroke="grey" stroke-width="2" points="702.6,-183.17 692.46,-180.1 698.48,-188.82 702.6,-183.17"/>
</g>
<!-- 8 -->
<g id="node9" class="node">
<title>8</title>
<path fill="none" stroke="#567bd8" stroke-width="2" stroke-dasharray="5,2" d="M777,-324C777,-324 677,-324 677,-324 671,-324 665,-318 665,-312 665,-312 665,-300 665,-300 665,-294 671,-288 677,-288 677,-288 777,-288 777,-288 783,-288 789,-294 789,-300 789,-300 789,-312 789,-312 789,-318 783,-324 777,-324"/>
<text text-anchor="middle" x="727" y="-303.5" font-family="sans" font-size="10.00">GATK_MarkDuplicates</text>
</g>
<!-- 8&#45;&gt;7 -->
<g id="edge13" class="edge">
<title>8&#45;&gt;7</title>
<path fill="none" stroke="grey" stroke-width="2" d="M736.39,-287.7C740.76,-279.64 746.06,-269.89 750.9,-260.98"/>
<polygon fill="grey" stroke="grey" stroke-width="2" points="754.02,-262.56 755.71,-252.1 747.87,-259.22 754.02,-262.56"/>
</g>
<!-- 8&#45;&gt;15 -->
<g id="edge21" class="edge">
<title>8&#45;&gt;15</title>
<path fill="none" stroke="grey" stroke-width="2" d="M768.53,-287.94C789.7,-278.52 815.46,-265.92 837,-252 866.71,-232.8 897.3,-206.26 917.93,-187.16"/>
<polygon fill="grey" stroke="grey" stroke-width="2" points="920.42,-189.63 925.33,-180.24 915.64,-184.52 920.42,-189.63"/>
</g>
<!-- 8&#45;&gt;21 -->
<g id="edge39" class="edge">
<title>8&#45;&gt;21</title>
<path fill="none" stroke="grey" stroke-width="2" d="M664.75,-301.99C629.06,-296.68 586.91,-283.54 564,-252 550.99,-234.09 555.83,-208.61 562.7,-189.5"/>
<polygon fill="grey" stroke="grey" stroke-width="2" points="565.97,-190.75 566.4,-180.16 559.46,-188.17 565.97,-190.75"/>
</g>
<!-- 8&#45;&gt;22 -->
<g id="edge42" class="edge">
<title>8&#45;&gt;22</title>
<path fill="none" stroke="grey" stroke-width="2" d="M778.65,-287.96C795.14,-279.8 811.55,-268.18 821,-252 832.55,-232.23 823.02,-207.06 812.22,-188.53"/>
<polygon fill="grey" stroke="grey" stroke-width="2" points="815.17,-186.65 806.9,-180.02 809.24,-190.36 815.17,-186.65"/>
</g>
<!-- 8&#45;&gt;23 -->
<g id="edge45" class="edge">
<title>8&#45;&gt;23</title>
<path fill="none" stroke="grey" stroke-width="2" d="M720,-287.87C710.03,-263.46 691.64,-218.43 679.88,-189.64"/>
<polygon fill="grey" stroke="grey" stroke-width="2" points="683.04,-188.12 676.02,-180.19 676.56,-190.77 683.04,-188.12"/>
</g>
<!-- 9&#45;&gt;8 -->
<g id="edge14" class="edge">
<title>9&#45;&gt;8</title>
<path fill="none" stroke="grey" stroke-width="2" d="M640.89,-359.88C655.79,-350.72 674.33,-339.34 690.38,-329.48"/>
<polygon fill="grey" stroke="grey" stroke-width="2" points="692.31,-332.41 699.01,-324.19 688.65,-326.44 692.31,-332.41"/>
</g>
<!-- 10 -->
<g id="node11" class="node">
<title>10</title>
<path fill="none" stroke="#56d8a9" stroke-width="2" stroke-dasharray="5,2" d="M650,-468C650,-468 576,-468 576,-468 570,-468 564,-462 564,-456 564,-456 564,-444 564,-444 564,-438 570,-432 576,-432 576,-432 650,-432 650,-432 656,-432 662,-438 662,-444 662,-444 662,-456 662,-456 662,-462 656,-468 650,-468"/>
<text text-anchor="middle" x="613" y="-447.5" font-family="sans" font-size="10.00">trimmomatic_pe</text>
</g>
<!-- 10&#45;&gt;9 -->
<g id="edge15" class="edge">
<title>10&#45;&gt;9</title>
<path fill="none" stroke="grey" stroke-width="2" d="M613,-431.7C613,-423.98 613,-414.71 613,-406.11"/>
<polygon fill="grey" stroke="grey" stroke-width="2" points="616.5,-406.1 613,-396.1 609.5,-406.1 616.5,-406.1"/>
</g>
<!-- 11 -->
<g id="node12" class="node">
<title>11</title>
<path fill="none" stroke="#d8bc56" stroke-width="2" stroke-dasharray="5,2" d="M648.5,-540C648.5,-540 577.5,-540 577.5,-540 571.5,-540 565.5,-534 565.5,-528 565.5,-528 565.5,-516 565.5,-516 565.5,-510 571.5,-504 577.5,-504 577.5,-504 648.5,-504 648.5,-504 654.5,-504 660.5,-510 660.5,-516 660.5,-516 660.5,-528 660.5,-528 660.5,-534 654.5,-540 648.5,-540"/>
<text text-anchor="middle" x="613" y="-525" font-family="sans" font-size="10.00">Remove_human</text>
<text text-anchor="middle" x="613" y="-514" font-family="sans" font-size="10.00">sample: B</text>
</g>
<!-- 11&#45;&gt;10 -->
<g id="edge17" class="edge">
<title>11&#45;&gt;10</title>
<path fill="none" stroke="grey" stroke-width="2" d="M613,-503.7C613,-495.98 613,-486.71 613,-478.11"/>
<polygon fill="grey" stroke="grey" stroke-width="2" points="616.5,-478.1 613,-468.1 609.5,-478.1 616.5,-478.1"/>
</g>
<!-- 12 -->
<g id="node13" class="node">
<title>12</title>
<path fill="none" stroke="#afd856" stroke-width="2" stroke-dasharray="5,2" d="M80,-252C80,-252 12,-252 12,-252 6,-252 0,-246 0,-240 0,-240 0,-228 0,-228 0,-222 6,-216 12,-216 12,-216 80,-216 80,-216 86,-216 92,-222 92,-228 92,-228 92,-240 92,-240 92,-246 86,-252 80,-252"/>
<text text-anchor="middle" x="46" y="-231.5" font-family="sans" font-size="10.00">samtools_faidx</text>
</g>
<!-- 12&#45;&gt;0 -->
<g id="edge3" class="edge">
<title>12&#45;&gt;0</title>
<path fill="none" stroke="grey" stroke-width="2" d="M29.54,-215.92C21.35,-206.22 12.3,-193.37 8,-180 3.1,-164.77 1.78,-158.74 8,-144 25.85,-101.73 40.8,-92.21 82,-72 141.1,-43.01 337.15,-26.95 419.77,-21.32"/>
<polygon fill="grey" stroke="grey" stroke-width="2" points="420.21,-24.8 429.96,-20.64 419.75,-17.82 420.21,-24.8"/>
</g>
<!-- 12&#45;&gt;17 -->
<g id="edge29" class="edge">
<title>12&#45;&gt;17</title>
<path fill="none" stroke="grey" stroke-width="2" d="M46.99,-215.7C47.43,-207.98 47.96,-198.71 48.45,-190.11"/>
<polygon fill="grey" stroke="grey" stroke-width="2" points="51.95,-190.29 49.02,-180.1 44.96,-189.89 51.95,-190.29"/>
</g>
<!-- 12&#45;&gt;21 -->
<g id="edge41" class="edge">
<title>12&#45;&gt;21</title>
<path fill="none" stroke="grey" stroke-width="2" d="M92.04,-226.7C117.13,-223.35 148.75,-219.26 177,-216 331.74,-198.14 376.79,-217.39 532.36,-179.71"/>
<polygon fill="grey" stroke="grey" stroke-width="2" points="533.41,-183.06 542.28,-177.27 531.73,-176.26 533.41,-183.06"/>
</g>
<!-- 13&#45;&gt;0 -->
<g id="edge4" class="edge">
<title>13&#45;&gt;0</title>
<path fill="none" stroke="grey" stroke-width="2" d="M457,-143.87C457,-119.67 457,-75.21 457,-46.39"/>
<polygon fill="grey" stroke="grey" stroke-width="2" points="460.5,-46.19 457,-36.19 453.5,-46.19 460.5,-46.19"/>
</g>
<!-- 14 -->
<g id="node15" class="node">
<title>14</title>
<path fill="none" stroke="#56d86b" stroke-width="2" stroke-dasharray="5,2" d="M649.5,-252C649.5,-252 584.5,-252 584.5,-252 578.5,-252 572.5,-246 572.5,-240 572.5,-240 572.5,-228 572.5,-228 572.5,-222 578.5,-216 584.5,-216 584.5,-216 649.5,-216 649.5,-216 655.5,-216 661.5,-222 661.5,-228 661.5,-228 661.5,-240 661.5,-240 661.5,-246 655.5,-252 649.5,-252"/>
<text text-anchor="middle" x="617" y="-231.5" font-family="sans" font-size="10.00">picard_SeqDict</text>
</g>
<!-- 14&#45;&gt;13 -->
<g id="edge19" class="edge">
<title>14&#45;&gt;13</title>
<path fill="none" stroke="grey" stroke-width="2" d="M577.86,-215.88C555.99,-206.31 528.54,-194.3 505.34,-184.15"/>
<polygon fill="grey" stroke="grey" stroke-width="2" points="506.58,-180.87 496.01,-180.07 503.77,-187.28 506.58,-180.87"/>
</g>
<!-- 14&#45;&gt;15 -->
<g id="edge22" class="edge">
<title>14&#45;&gt;15</title>
<path fill="none" stroke="grey" stroke-width="2" d="M661.74,-223.67C709.74,-213.63 788.46,-197.06 865.94,-180.22"/>
<polygon fill="grey" stroke="grey" stroke-width="2" points="866.85,-183.6 875.87,-178.06 865.36,-176.76 866.85,-183.6"/>
</g>
<!-- 14&#45;&gt;18 -->
<g id="edge31" class="edge">
<title>14&#45;&gt;18</title>
<path fill="none" stroke="grey" stroke-width="2" d="M572.17,-223.04C526.72,-212.92 454.1,-196.69 381.47,-180.1"/>
<polygon fill="grey" stroke="grey" stroke-width="2" points="382.22,-176.68 371.69,-177.86 380.66,-183.5 382.22,-176.68"/>
</g>
<!-- 14&#45;&gt;19 -->
<g id="edge34" class="edge">
<title>14&#45;&gt;19</title>
<path fill="none" stroke="grey" stroke-width="2" d="M572.32,-227.44C501.06,-218.42 357.3,-199.63 236,-180 223.6,-177.99 210.3,-175.65 197.77,-173.35"/>
<polygon fill="grey" stroke="grey" stroke-width="2" points="198.39,-169.91 187.92,-171.53 197.11,-176.79 198.39,-169.91"/>
</g>
<!-- 14&#45;&gt;22 -->
<g id="edge43" class="edge">
<title>14&#45;&gt;22</title>
<path fill="none" stroke="grey" stroke-width="2" d="M660.3,-215.88C684.71,-206.22 715.4,-194.09 741.21,-183.88"/>
<polygon fill="grey" stroke="grey" stroke-width="2" points="742.83,-187 750.84,-180.07 740.26,-180.49 742.83,-187"/>
</g>
<!-- 14&#45;&gt;23 -->
<g id="edge46" class="edge">
<title>14&#45;&gt;23</title>
<path fill="none" stroke="grey" stroke-width="2" d="M629.85,-215.7C636.03,-207.39 643.54,-197.28 650.32,-188.14"/>
<polygon fill="grey" stroke="grey" stroke-width="2" points="653.14,-190.22 656.29,-180.1 647.52,-186.04 653.14,-190.22"/>
</g>
<!-- 15&#45;&gt;0 -->
<g id="edge5" class="edge">
<title>15&#45;&gt;0</title>
<path fill="none" stroke="grey" stroke-width="2" d="M896.85,-143.93C844.66,-124.96 756.91,-94.1 680,-72 615.25,-53.39 538.6,-36.21 494.12,-26.72"/>
<polygon fill="grey" stroke="grey" stroke-width="2" points="494.84,-23.29 484.33,-24.64 493.39,-30.14 494.84,-23.29"/>
</g>
<!-- 16 -->
<g id="node17" class="node">
<title>16</title>
<path fill="none" stroke="#d87556" stroke-width="2" stroke-dasharray="5,2" d="M175.5,-108C175.5,-108 102.5,-108 102.5,-108 96.5,-108 90.5,-102 90.5,-96 90.5,-96 90.5,-84 90.5,-84 90.5,-78 96.5,-72 102.5,-72 102.5,-72 175.5,-72 175.5,-72 181.5,-72 187.5,-78 187.5,-84 187.5,-84 187.5,-96 187.5,-96 187.5,-102 181.5,-108 175.5,-108"/>
<text text-anchor="middle" x="139" y="-87.5" font-family="sans" font-size="10.00">GATK_MergeVCF</text>
</g>
<!-- 16&#45;&gt;0 -->
<g id="edge6" class="edge">
<title>16&#45;&gt;0</title>
<path fill="none" stroke="grey" stroke-width="2" d="M187.77,-75.54C192.57,-74.3 197.37,-73.1 202,-72 278.99,-53.63 369.92,-35.6 419.73,-26.04"/>
<polygon fill="grey" stroke="grey" stroke-width="2" points="420.55,-29.44 429.71,-24.13 419.23,-22.57 420.55,-29.44"/>
</g>
<!-- 17&#45;&gt;16 -->
<g id="edge24" class="edge">
<title>17&#45;&gt;16</title>
<path fill="none" stroke="grey" stroke-width="2" d="M72,-143.7C83.21,-134.88 97,-124.03 109.15,-114.47"/>
<polygon fill="grey" stroke="grey" stroke-width="2" points="111.56,-117.04 117.25,-108.1 107.23,-111.54 111.56,-117.04"/>
</g>
<!-- 18&#45;&gt;16 -->
<g id="edge25" class="edge">
<title>18&#45;&gt;16</title>
<path fill="none" stroke="grey" stroke-width="2" d="M266.66,-143.88C243.45,-134.26 214.31,-122.19 189.73,-112.01"/>
<polygon fill="grey" stroke="grey" stroke-width="2" points="190.79,-108.66 180.21,-108.07 188.11,-115.13 190.79,-108.66"/>
</g>
<!-- 19&#45;&gt;16 -->
<g id="edge26" class="edge">
<title>19&#45;&gt;16</title>
<path fill="none" stroke="grey" stroke-width="2" d="M142.76,-143.7C142.21,-135.98 141.55,-126.71 140.94,-118.11"/>
<polygon fill="grey" stroke="grey" stroke-width="2" points="144.43,-117.83 140.22,-108.1 137.44,-118.33 144.43,-117.83"/>
</g>
<!-- 20 -->
<g id="node21" class="node">
<title>20</title>
<path fill="none" stroke="#d87556" stroke-width="2" stroke-dasharray="5,2" d="M658.5,-108C658.5,-108 585.5,-108 585.5,-108 579.5,-108 573.5,-102 573.5,-96 573.5,-96 573.5,-84 573.5,-84 573.5,-78 579.5,-72 585.5,-72 585.5,-72 658.5,-72 658.5,-72 664.5,-72 670.5,-78 670.5,-84 670.5,-84 670.5,-96 670.5,-96 670.5,-102 664.5,-108 658.5,-108"/>
<text text-anchor="middle" x="622" y="-87.5" font-family="sans" font-size="10.00">GATK_MergeVCF</text>
</g>
<!-- 20&#45;&gt;0 -->
<g id="edge7" class="edge">
<title>20&#45;&gt;0</title>
<path fill="none" stroke="grey" stroke-width="2" d="M581.64,-71.88C554.73,-60.46 519.66,-45.58 493.58,-34.52"/>
<polygon fill="grey" stroke="grey" stroke-width="2" points="494.63,-31.16 484.05,-30.48 491.89,-37.61 494.63,-31.16"/>
</g>
<!-- 21&#45;&gt;20 -->
<g id="edge36" class="edge">
<title>21&#45;&gt;20</title>
<path fill="none" stroke="grey" stroke-width="2" d="M586.62,-143.7C592.14,-135.47 598.85,-125.48 604.93,-116.42"/>
<polygon fill="grey" stroke="grey" stroke-width="2" points="607.85,-118.36 610.52,-108.1 602.04,-114.46 607.85,-118.36"/>
</g>
<!-- 22&#45;&gt;20 -->
<g id="edge37" class="edge">
<title>22&#45;&gt;20</title>
<path fill="none" stroke="grey" stroke-width="2" d="M751.92,-143.88C728.2,-134.22 698.38,-122.09 673.3,-111.88"/>
<polygon fill="grey" stroke="grey" stroke-width="2" points="674.52,-108.6 663.94,-108.07 671.88,-115.08 674.52,-108.6"/>
</g>
<!-- 23&#45;&gt;20 -->
<g id="edge38" class="edge">
<title>23&#45;&gt;20</title>
<path fill="none" stroke="grey" stroke-width="2" d="M657.38,-143.7C651.86,-135.47 645.15,-125.48 639.07,-116.42"/>
<polygon fill="grey" stroke="grey" stroke-width="2" points="641.96,-114.46 633.48,-108.1 636.15,-118.36 641.96,-114.46"/>
</g>
</g>
</svg>
