<?xml version="1.0" encoding="UTF-8" standalone="no"?>
<!DOCTYPE svg PUBLIC "-//W3C//DTD SVG 1.1//EN"
 "http://www.w3.org/Graphics/SVG/1.1/DTD/svg11.dtd">
<!-- Generated by graphviz version 2.42.3 (20191010.1750)
 -->
<!-- Title: snakemake_dag Pages: 1 -->
<svg width="704pt" height="404pt"
 viewBox="0.00 0.00 704.00 404.00" xmlns="http://www.w3.org/2000/svg" xmlns:xlink="http://www.w3.org/1999/xlink">
<g id="graph0" class="graph" transform="scale(1 1) rotate(0) translate(4 400)">
<title>snakemake_dag</title>
<polygon fill="white" stroke="transparent" points="-4,4 -4,-400 700,-400 700,4 -4,4"/>
<!-- 0 -->
<g id="node1" class="node">
<title>0</title>
<path fill="none" stroke="#56d86b" stroke-width="2" d="M285,-36C285,-36 255,-36 255,-36 249,-36 243,-30 243,-24 243,-24 243,-12 243,-12 243,-6 249,0 255,0 255,0 285,0 285,0 291,0 297,-6 297,-12 297,-12 297,-24 297,-24 297,-30 291,-36 285,-36"/>
<text text-anchor="middle" x="270" y="-15.5" font-family="sans" font-size="10.00">all</text>
</g>
<!-- 1 -->
<g id="node2" class="node">
<title>1</title>
<path fill="none" stroke="#5682d8" stroke-width="2" d="M82,-180C82,-180 12,-180 12,-180 6,-180 0,-174 0,-168 0,-168 0,-156 0,-156 0,-150 6,-144 12,-144 12,-144 82,-144 82,-144 88,-144 94,-150 94,-156 94,-156 94,-168 94,-168 94,-174 88,-180 82,-180"/>
<text text-anchor="middle" x="47" y="-159.5" font-family="sans" font-size="10.00">samtools_index</text>
</g>
<!-- 1&#45;&gt;0 -->
<g id="edge1" class="edge">
<title>1&#45;&gt;0</title>
<path fill="none" stroke="grey" stroke-width="2" d="M50.02,-143.66C54.42,-123.55 64.55,-90.78 86,-72 127.42,-35.74 192.24,-24.21 232.86,-20.59"/>
<polygon fill="grey" stroke="grey" stroke-width="2" points="233.18,-24.08 242.88,-19.82 232.64,-17.1 233.18,-24.08"/>
</g>
<!-- 11 -->
<g id="node12" class="node">
<title>11</title>
<path fill="none" stroke="#d88556" stroke-width="2" d="M148.5,-108C148.5,-108 107.5,-108 107.5,-108 101.5,-108 95.5,-102 95.5,-96 95.5,-96 95.5,-84 95.5,-84 95.5,-78 101.5,-72 107.5,-72 107.5,-72 148.5,-72 148.5,-72 154.5,-72 160.5,-78 160.5,-84 160.5,-84 160.5,-96 160.5,-96 160.5,-102 154.5,-108 148.5,-108"/>
<text text-anchor="middle" x="128" y="-87.5" font-family="sans" font-size="10.00">freebayes</text>
</g>
<!-- 1&#45;&gt;11 -->
<g id="edge17" class="edge">
<title>1&#45;&gt;11</title>
<path fill="none" stroke="grey" stroke-width="2" d="M67.02,-143.7C77.13,-134.97 89.54,-124.24 100.52,-114.75"/>
<polygon fill="grey" stroke="grey" stroke-width="2" points="102.93,-117.29 108.21,-108.1 98.35,-111.99 102.93,-117.29"/>
</g>
<!-- 2 -->
<g id="node3" class="node">
<title>2</title>
<path fill="none" stroke="#ced856" stroke-width="2" d="M173,-252C173,-252 73,-252 73,-252 67,-252 61,-246 61,-240 61,-240 61,-228 61,-228 61,-222 67,-216 73,-216 73,-216 173,-216 173,-216 179,-216 185,-222 185,-228 185,-228 185,-240 185,-240 185,-246 179,-252 173,-252"/>
<text text-anchor="middle" x="123" y="-231.5" font-family="sans" font-size="10.00">GATK_MarkDuplicates</text>
</g>
<!-- 2&#45;&gt;1 -->
<g id="edge8" class="edge">
<title>2&#45;&gt;1</title>
<path fill="none" stroke="grey" stroke-width="2" d="M104.21,-215.7C94.83,-207.05 83.32,-196.45 73.09,-187.03"/>
<polygon fill="grey" stroke="grey" stroke-width="2" points="75.3,-184.3 65.57,-180.1 70.55,-189.45 75.3,-184.3"/>
</g>
<!-- 2&#45;&gt;11 -->
<g id="edge16" class="edge">
<title>2&#45;&gt;11</title>
<path fill="none" stroke="grey" stroke-width="2" d="M123.6,-215.87C124.46,-191.67 126.02,-147.21 127.04,-118.39"/>
<polygon fill="grey" stroke="grey" stroke-width="2" points="130.54,-118.31 127.39,-108.19 123.54,-118.06 130.54,-118.31"/>
</g>
<!-- 13 -->
<g id="node14" class="node">
<title>13</title>
<path fill="none" stroke="#d85656" stroke-width="2" d="M532,-180C532,-180 422,-180 422,-180 416,-180 410,-174 410,-168 410,-168 410,-156 410,-156 410,-150 416,-144 422,-144 422,-144 532,-144 532,-144 538,-144 544,-150 544,-156 544,-156 544,-168 544,-168 544,-174 538,-180 532,-180"/>
<text text-anchor="middle" x="477" y="-159.5" font-family="sans" font-size="10.00">GATK_DepthofCoverage</text>
</g>
<!-- 2&#45;&gt;13 -->
<g id="edge22" class="edge">
<title>2&#45;&gt;13</title>
<path fill="none" stroke="grey" stroke-width="2" d="M185.22,-221.72C239.32,-211.78 320.07,-196.63 399.68,-180.24"/>
<polygon fill="grey" stroke="grey" stroke-width="2" points="400.8,-183.58 409.89,-178.13 399.39,-176.73 400.8,-183.58"/>
</g>
<!-- 3 -->
<g id="node4" class="node">
<title>3</title>
<path fill="none" stroke="#d8b456" stroke-width="2" d="M152,-324C152,-324 96,-324 96,-324 90,-324 84,-318 84,-312 84,-312 84,-300 84,-300 84,-294 90,-288 96,-288 96,-288 152,-288 152,-288 158,-288 164,-294 164,-300 164,-300 164,-312 164,-312 164,-318 158,-324 152,-324"/>
<text text-anchor="middle" x="124" y="-303.5" font-family="sans" font-size="10.00">bowtie2Align</text>
</g>
<!-- 3&#45;&gt;2 -->
<g id="edge9" class="edge">
<title>3&#45;&gt;2</title>
<path fill="none" stroke="grey" stroke-width="2" d="M123.75,-287.7C123.64,-279.98 123.51,-270.71 123.39,-262.11"/>
<polygon fill="grey" stroke="grey" stroke-width="2" points="126.89,-262.05 123.24,-252.1 119.89,-262.15 126.89,-262.05"/>
</g>
<!-- 4 -->
<g id="node5" class="node">
<title>4</title>
<path fill="none" stroke="#56b1d8" stroke-width="2" d="M161,-396C161,-396 87,-396 87,-396 81,-396 75,-390 75,-384 75,-384 75,-372 75,-372 75,-366 81,-360 87,-360 87,-360 161,-360 161,-360 167,-360 173,-366 173,-372 173,-372 173,-384 173,-384 173,-390 167,-396 161,-396"/>
<text text-anchor="middle" x="124" y="-381" font-family="sans" font-size="10.00">trimmomatic_pe</text>
<text text-anchor="middle" x="124" y="-370" font-family="sans" font-size="10.00">sample: A</text>
</g>
<!-- 4&#45;&gt;3 -->
<g id="edge10" class="edge">
<title>4&#45;&gt;3</title>
<path fill="none" stroke="grey" stroke-width="2" d="M124,-359.7C124,-351.98 124,-342.71 124,-334.11"/>
<polygon fill="grey" stroke="grey" stroke-width="2" points="127.5,-334.1 124,-324.1 120.5,-334.1 127.5,-334.1"/>
</g>
<!-- 5 -->
<g id="node6" class="node">
<title>5</title>
<path fill="none" stroke="#56d89a" stroke-width="2" stroke-dasharray="5,2" d="M263,-396C263,-396 207,-396 207,-396 201,-396 195,-390 195,-384 195,-384 195,-372 195,-372 195,-366 201,-360 207,-360 207,-360 263,-360 263,-360 269,-360 275,-366 275,-372 275,-372 275,-384 275,-384 275,-390 269,-396 263,-396"/>
<text text-anchor="middle" x="235" y="-375.5" font-family="sans" font-size="10.00">bowtie2Build</text>
</g>
<!-- 5&#45;&gt;3 -->
<g id="edge11" class="edge">
<title>5&#45;&gt;3</title>
<path fill="none" stroke="grey" stroke-width="2" d="M207.85,-359.88C193.47,-350.81 175.62,-339.55 160.09,-329.76"/>
<polygon fill="grey" stroke="grey" stroke-width="2" points="161.58,-326.56 151.26,-324.19 157.85,-332.48 161.58,-326.56"/>
</g>
<!-- 8 -->
<g id="node9" class="node">
<title>8</title>
<path fill="none" stroke="#d8b456" stroke-width="2" d="M372,-324C372,-324 316,-324 316,-324 310,-324 304,-318 304,-312 304,-312 304,-300 304,-300 304,-294 310,-288 316,-288 316,-288 372,-288 372,-288 378,-288 384,-294 384,-300 384,-300 384,-312 384,-312 384,-318 378,-324 372,-324"/>
<text text-anchor="middle" x="344" y="-303.5" font-family="sans" font-size="10.00">bowtie2Align</text>
</g>
<!-- 5&#45;&gt;8 -->
<g id="edge15" class="edge">
<title>5&#45;&gt;8</title>
<path fill="none" stroke="grey" stroke-width="2" d="M261.66,-359.88C275.78,-350.81 293.31,-339.55 308.56,-329.76"/>
<polygon fill="grey" stroke="grey" stroke-width="2" points="310.71,-332.54 317.23,-324.19 306.93,-326.65 310.71,-332.54"/>
</g>
<!-- 6 -->
<g id="node7" class="node">
<title>6</title>
<path fill="none" stroke="#5682d8" stroke-width="2" d="M380,-180C380,-180 310,-180 310,-180 304,-180 298,-174 298,-168 298,-168 298,-156 298,-156 298,-150 304,-144 310,-144 310,-144 380,-144 380,-144 386,-144 392,-150 392,-156 392,-156 392,-168 392,-168 392,-174 386,-180 380,-180"/>
<text text-anchor="middle" x="345" y="-159.5" font-family="sans" font-size="10.00">samtools_index</text>
</g>
<!-- 6&#45;&gt;0 -->
<g id="edge2" class="edge">
<title>6&#45;&gt;0</title>
<path fill="none" stroke="grey" stroke-width="2" d="M340.41,-143.9C335.07,-125.45 325.25,-95.55 312,-72 306.5,-62.23 299.26,-52.38 292.35,-43.86"/>
<polygon fill="grey" stroke="grey" stroke-width="2" points="294.99,-41.56 285.88,-36.15 289.62,-46.06 294.99,-41.56"/>
</g>
<!-- 12 -->
<g id="node13" class="node">
<title>12</title>
<path fill="none" stroke="#d88556" stroke-width="2" d="M290.5,-108C290.5,-108 249.5,-108 249.5,-108 243.5,-108 237.5,-102 237.5,-96 237.5,-96 237.5,-84 237.5,-84 237.5,-78 243.5,-72 249.5,-72 249.5,-72 290.5,-72 290.5,-72 296.5,-72 302.5,-78 302.5,-84 302.5,-84 302.5,-96 302.5,-96 302.5,-102 296.5,-108 290.5,-108"/>
<text text-anchor="middle" x="270" y="-87.5" font-family="sans" font-size="10.00">freebayes</text>
</g>
<!-- 6&#45;&gt;12 -->
<g id="edge20" class="edge">
<title>6&#45;&gt;12</title>
<path fill="none" stroke="grey" stroke-width="2" d="M326.46,-143.7C317.2,-135.05 305.84,-124.45 295.74,-115.03"/>
<polygon fill="grey" stroke="grey" stroke-width="2" points="298.02,-112.37 288.33,-108.1 293.25,-117.49 298.02,-112.37"/>
</g>
<!-- 7 -->
<g id="node8" class="node">
<title>7</title>
<path fill="none" stroke="#ced856" stroke-width="2" d="M394,-252C394,-252 294,-252 294,-252 288,-252 282,-246 282,-240 282,-240 282,-228 282,-228 282,-222 288,-216 294,-216 294,-216 394,-216 394,-216 400,-216 406,-222 406,-228 406,-228 406,-240 406,-240 406,-246 400,-252 394,-252"/>
<text text-anchor="middle" x="344" y="-231.5" font-family="sans" font-size="10.00">GATK_MarkDuplicates</text>
</g>
<!-- 7&#45;&gt;6 -->
<g id="edge12" class="edge">
<title>7&#45;&gt;6</title>
<path fill="none" stroke="grey" stroke-width="2" d="M344.25,-215.7C344.36,-207.98 344.49,-198.71 344.61,-190.11"/>
<polygon fill="grey" stroke="grey" stroke-width="2" points="348.11,-190.15 344.76,-180.1 341.11,-190.05 348.11,-190.15"/>
</g>
<!-- 7&#45;&gt;12 -->
<g id="edge19" class="edge">
<title>7&#45;&gt;12</title>
<path fill="none" stroke="grey" stroke-width="2" d="M320.47,-215.8C309.3,-206.42 296.73,-193.91 289,-180 278.42,-160.95 273.72,-136.59 271.64,-118.18"/>
<polygon fill="grey" stroke="grey" stroke-width="2" points="275.12,-117.73 270.7,-108.1 268.15,-118.39 275.12,-117.73"/>
</g>
<!-- 15 -->
<g id="node16" class="node">
<title>15</title>
<path fill="none" stroke="#d85656" stroke-width="2" d="M684,-180C684,-180 574,-180 574,-180 568,-180 562,-174 562,-168 562,-168 562,-156 562,-156 562,-150 568,-144 574,-144 574,-144 684,-144 684,-144 690,-144 696,-150 696,-156 696,-156 696,-168 696,-168 696,-174 690,-180 684,-180"/>
<text text-anchor="middle" x="629" y="-159.5" font-family="sans" font-size="10.00">GATK_DepthofCoverage</text>
</g>
<!-- 7&#45;&gt;15 -->
<g id="edge24" class="edge">
<title>7&#45;&gt;15</title>
<path fill="none" stroke="grey" stroke-width="2" d="M406.19,-217.72C449.07,-207.19 506.35,-193.12 552.1,-181.89"/>
<polygon fill="grey" stroke="grey" stroke-width="2" points="553.09,-185.25 561.97,-179.46 551.42,-178.45 553.09,-185.25"/>
</g>
<!-- 8&#45;&gt;7 -->
<g id="edge13" class="edge">
<title>8&#45;&gt;7</title>
<path fill="none" stroke="grey" stroke-width="2" d="M344,-287.7C344,-279.98 344,-270.71 344,-262.11"/>
<polygon fill="grey" stroke="grey" stroke-width="2" points="347.5,-262.1 344,-252.1 340.5,-262.1 347.5,-262.1"/>
</g>
<!-- 9 -->
<g id="node10" class="node">
<title>9</title>
<path fill="none" stroke="#56b1d8" stroke-width="2" d="M381,-396C381,-396 307,-396 307,-396 301,-396 295,-390 295,-384 295,-384 295,-372 295,-372 295,-366 301,-360 307,-360 307,-360 381,-360 381,-360 387,-360 393,-366 393,-372 393,-372 393,-384 393,-384 393,-390 387,-396 381,-396"/>
<text text-anchor="middle" x="344" y="-381" font-family="sans" font-size="10.00">trimmomatic_pe</text>
<text text-anchor="middle" x="344" y="-370" font-family="sans" font-size="10.00">sample: B</text>
</g>
<!-- 9&#45;&gt;8 -->
<g id="edge14" class="edge">
<title>9&#45;&gt;8</title>
<path fill="none" stroke="grey" stroke-width="2" d="M344,-359.7C344,-351.98 344,-342.71 344,-334.11"/>
<polygon fill="grey" stroke="grey" stroke-width="2" points="347.5,-334.1 344,-324.1 340.5,-334.1 347.5,-334.1"/>
</g>
<!-- 10 -->
<g id="node11" class="node">
<title>10</title>
<path fill="none" stroke="#56d8c9" stroke-width="2" stroke-dasharray="5,2" d="M230,-180C230,-180 162,-180 162,-180 156,-180 150,-174 150,-168 150,-168 150,-156 150,-156 150,-150 156,-144 162,-144 162,-144 230,-144 230,-144 236,-144 242,-150 242,-156 242,-156 242,-168 242,-168 242,-174 236,-180 230,-180"/>
<text text-anchor="middle" x="196" y="-159.5" font-family="sans" font-size="10.00">samtools_faidx</text>
</g>
<!-- 10&#45;&gt;0 -->
<g id="edge3" class="edge">
<title>10&#45;&gt;0</title>
<path fill="none" stroke="grey" stroke-width="2" d="M200.36,-143.9C205.46,-125.44 214.91,-95.53 228,-72 233.45,-62.2 240.68,-52.34 247.6,-43.83"/>
<polygon fill="grey" stroke="grey" stroke-width="2" points="250.32,-46.03 254.07,-36.12 244.96,-41.53 250.32,-46.03"/>
</g>
<!-- 10&#45;&gt;11 -->
<g id="edge18" class="edge">
<title>10&#45;&gt;11</title>
<path fill="none" stroke="grey" stroke-width="2" d="M179.19,-143.7C170.87,-135.14 160.69,-124.66 151.61,-115.3"/>
<polygon fill="grey" stroke="grey" stroke-width="2" points="154.09,-112.84 144.62,-108.1 149.07,-117.72 154.09,-112.84"/>
</g>
<!-- 10&#45;&gt;12 -->
<g id="edge21" class="edge">
<title>10&#45;&gt;12</title>
<path fill="none" stroke="grey" stroke-width="2" d="M214.29,-143.7C223.43,-135.05 234.64,-124.45 244.6,-115.03"/>
<polygon fill="grey" stroke="grey" stroke-width="2" points="247.06,-117.52 251.92,-108.1 242.25,-112.43 247.06,-117.52"/>
</g>
<!-- 11&#45;&gt;0 -->
<g id="edge4" class="edge">
<title>11&#45;&gt;0</title>
<path fill="none" stroke="grey" stroke-width="2" d="M160.58,-72.94C182.36,-62.2 211.04,-48.06 233.58,-36.96"/>
<polygon fill="grey" stroke="grey" stroke-width="2" points="235.4,-39.96 242.82,-32.4 232.3,-33.68 235.4,-39.96"/>
</g>
<!-- 12&#45;&gt;0 -->
<g id="edge5" class="edge">
<title>12&#45;&gt;0</title>
<path fill="none" stroke="grey" stroke-width="2" d="M270,-71.7C270,-63.98 270,-54.71 270,-46.11"/>
<polygon fill="grey" stroke="grey" stroke-width="2" points="273.5,-46.1 270,-36.1 266.5,-46.1 273.5,-46.1"/>
</g>
<!-- 13&#45;&gt;0 -->
<g id="edge6" class="edge">
<title>13&#45;&gt;0</title>
<path fill="none" stroke="grey" stroke-width="2" d="M452.03,-143.87C414.89,-118.39 345.01,-70.45 303.47,-41.96"/>
<polygon fill="grey" stroke="grey" stroke-width="2" points="305.28,-38.96 295.06,-36.19 301.32,-44.73 305.28,-38.96"/>
</g>
<!-- 14 -->
<g id="node15" class="node">
<title>14</title>
<path fill="none" stroke="#70d856" stroke-width="2" stroke-dasharray="5,2" d="M585.5,-252C585.5,-252 520.5,-252 520.5,-252 514.5,-252 508.5,-246 508.5,-240 508.5,-240 508.5,-228 508.5,-228 508.5,-222 514.5,-216 520.5,-216 520.5,-216 585.5,-216 585.5,-216 591.5,-216 597.5,-222 597.5,-228 597.5,-228 597.5,-240 597.5,-240 597.5,-246 591.5,-252 585.5,-252"/>
<text text-anchor="middle" x="553" y="-231.5" font-family="sans" font-size="10.00">picard_SeqDict</text>
</g>
<!-- 14&#45;&gt;13 -->
<g id="edge23" class="edge">
<title>14&#45;&gt;13</title>
<path fill="none" stroke="grey" stroke-width="2" d="M534.21,-215.7C524.83,-207.05 513.32,-196.45 503.09,-187.03"/>
<polygon fill="grey" stroke="grey" stroke-width="2" points="505.3,-184.3 495.57,-180.1 500.55,-189.45 505.3,-184.3"/>
</g>
<!-- 14&#45;&gt;15 -->
<g id="edge25" class="edge">
<title>14&#45;&gt;15</title>
<path fill="none" stroke="grey" stroke-width="2" d="M571.79,-215.7C581.17,-207.05 592.68,-196.45 602.91,-187.03"/>
<polygon fill="grey" stroke="grey" stroke-width="2" points="605.45,-189.45 610.43,-180.1 600.7,-184.3 605.45,-189.45"/>
</g>
<!-- 15&#45;&gt;0 -->
<g id="edge7" class="edge">
<title>15&#45;&gt;0</title>
<path fill="none" stroke="grey" stroke-width="2" d="M585.7,-143.87C514.39,-115.67 373.51,-59.94 306.75,-33.54"/>
<polygon fill="grey" stroke="grey" stroke-width="2" points="307.66,-30.13 297.07,-29.71 305.08,-36.64 307.66,-30.13"/>
</g>
</g>
</svg>
