<?xml version="1.0" encoding="UTF-8" standalone="no"?>
<!DOCTYPE svg PUBLIC "-//W3C//DTD SVG 1.1//EN"
 "http://www.w3.org/Graphics/SVG/1.1/DTD/svg11.dtd">
<!-- Generated by graphviz version 2.42.3 (20191010.1750)
 -->
<!-- Title: snakemake_dag Pages: 1 -->
<svg width="425pt" height="332pt"
 viewBox="0.00 0.00 425.00 332.00" xmlns="http://www.w3.org/2000/svg" xmlns:xlink="http://www.w3.org/1999/xlink">
<g id="graph0" class="graph" transform="scale(1 1) rotate(0) translate(4 328)">
<title>snakemake_dag</title>
<polygon fill="white" stroke="transparent" points="-4,4 -4,-328 421,-328 421,4 -4,4"/>
<!-- 0 -->
<g id="node1" class="node">
<title>0</title>
<path fill="none" stroke="#569ad8" stroke-width="2" d="M260,-36C260,-36 230,-36 230,-36 224,-36 218,-30 218,-24 218,-24 218,-12 218,-12 218,-6 224,0 230,0 230,0 260,0 260,0 266,0 272,-6 272,-12 272,-12 272,-24 272,-24 272,-30 266,-36 260,-36"/>
<text text-anchor="middle" x="245" y="-15.5" font-family="sans" font-size="10.00">all</text>
</g>
<!-- 1 -->
<g id="node2" class="node">
<title>1</title>
<path fill="none" stroke="#d89556" stroke-width="2" d="M84,-108C84,-108 14,-108 14,-108 8,-108 2,-102 2,-96 2,-96 2,-84 2,-84 2,-78 8,-72 14,-72 14,-72 84,-72 84,-72 90,-72 96,-78 96,-84 96,-84 96,-96 96,-96 96,-102 90,-108 84,-108"/>
<text text-anchor="middle" x="49" y="-87.5" font-family="sans" font-size="10.00">samtools_index</text>
</g>
<!-- 1&#45;&gt;0 -->
<g id="edge1" class="edge">
<title>1&#45;&gt;0</title>
<path fill="none" stroke="grey" stroke-width="2" d="M96.45,-72.05C130.8,-59.79 176.56,-43.44 208.17,-32.15"/>
<polygon fill="grey" stroke="grey" stroke-width="2" points="209.66,-35.34 217.9,-28.68 207.31,-28.75 209.66,-35.34"/>
</g>
<!-- 2 -->
<g id="node3" class="node">
<title>2</title>
<path fill="none" stroke="#d6d856" stroke-width="2" d="M135,-180C135,-180 35,-180 35,-180 29,-180 23,-174 23,-168 23,-168 23,-156 23,-156 23,-150 29,-144 35,-144 35,-144 135,-144 135,-144 141,-144 147,-150 147,-156 147,-156 147,-168 147,-168 147,-174 141,-180 135,-180"/>
<text text-anchor="middle" x="85" y="-159.5" font-family="sans" font-size="10.00">GATK_MarkDuplicates</text>
</g>
<!-- 2&#45;&gt;1 -->
<g id="edge6" class="edge">
<title>2&#45;&gt;1</title>
<path fill="none" stroke="grey" stroke-width="2" d="M76.1,-143.7C72,-135.73 67.05,-126.1 62.51,-117.26"/>
<polygon fill="grey" stroke="grey" stroke-width="2" points="65.48,-115.4 57.8,-108.1 59.26,-118.6 65.48,-115.4"/>
</g>
<!-- 11 -->
<g id="node12" class="node">
<title>11</title>
<path fill="none" stroke="#97d856" stroke-width="2" d="M167.5,-108C167.5,-108 126.5,-108 126.5,-108 120.5,-108 114.5,-102 114.5,-96 114.5,-96 114.5,-84 114.5,-84 114.5,-78 120.5,-72 126.5,-72 126.5,-72 167.5,-72 167.5,-72 173.5,-72 179.5,-78 179.5,-84 179.5,-84 179.5,-96 179.5,-96 179.5,-102 173.5,-108 167.5,-108"/>
<text text-anchor="middle" x="147" y="-87.5" font-family="sans" font-size="10.00">freebayes</text>
</g>
<!-- 2&#45;&gt;11 -->
<g id="edge14" class="edge">
<title>2&#45;&gt;11</title>
<path fill="none" stroke="grey" stroke-width="2" d="M100.33,-143.7C107.76,-135.3 116.82,-125.07 124.98,-115.86"/>
<polygon fill="grey" stroke="grey" stroke-width="2" points="127.84,-117.91 131.85,-108.1 122.6,-113.27 127.84,-117.91"/>
</g>
<!-- 3 -->
<g id="node4" class="node">
<title>3</title>
<path fill="none" stroke="#59d856" stroke-width="2" d="M113,-252C113,-252 57,-252 57,-252 51,-252 45,-246 45,-240 45,-240 45,-228 45,-228 45,-222 51,-216 57,-216 57,-216 113,-216 113,-216 119,-216 125,-222 125,-228 125,-228 125,-240 125,-240 125,-246 119,-252 113,-252"/>
<text text-anchor="middle" x="85" y="-231.5" font-family="sans" font-size="10.00">bowtie2Align</text>
</g>
<!-- 3&#45;&gt;2 -->
<g id="edge7" class="edge">
<title>3&#45;&gt;2</title>
<path fill="none" stroke="grey" stroke-width="2" d="M85,-215.7C85,-207.98 85,-198.71 85,-190.11"/>
<polygon fill="grey" stroke="grey" stroke-width="2" points="88.5,-190.1 85,-180.1 81.5,-190.1 88.5,-190.1"/>
</g>
<!-- 4 -->
<g id="node5" class="node">
<title>4</title>
<path fill="none" stroke="#56d89a" stroke-width="2" d="M86,-324C86,-324 12,-324 12,-324 6,-324 0,-318 0,-312 0,-312 0,-300 0,-300 0,-294 6,-288 12,-288 12,-288 86,-288 86,-288 92,-288 98,-294 98,-300 98,-300 98,-312 98,-312 98,-318 92,-324 86,-324"/>
<text text-anchor="middle" x="49" y="-309" font-family="sans" font-size="10.00">trimmomatic_pe</text>
<text text-anchor="middle" x="49" y="-298" font-family="sans" font-size="10.00">sample: A</text>
</g>
<!-- 4&#45;&gt;3 -->
<g id="edge8" class="edge">
<title>4&#45;&gt;3</title>
<path fill="none" stroke="grey" stroke-width="2" d="M57.9,-287.7C62,-279.73 66.95,-270.1 71.49,-261.26"/>
<polygon fill="grey" stroke="grey" stroke-width="2" points="74.74,-262.6 76.2,-252.1 68.52,-259.4 74.74,-262.6"/>
</g>
<!-- 5 -->
<g id="node6" class="node">
<title>5</title>
<path fill="none" stroke="#d85656" stroke-width="2" d="M184,-324C184,-324 128,-324 128,-324 122,-324 116,-318 116,-312 116,-312 116,-300 116,-300 116,-294 122,-288 128,-288 128,-288 184,-288 184,-288 190,-288 196,-294 196,-300 196,-300 196,-312 196,-312 196,-318 190,-324 184,-324"/>
<text text-anchor="middle" x="156" y="-303.5" font-family="sans" font-size="10.00">bowtie2Build</text>
</g>
<!-- 5&#45;&gt;3 -->
<g id="edge9" class="edge">
<title>5&#45;&gt;3</title>
<path fill="none" stroke="grey" stroke-width="2" d="M138.45,-287.7C129.77,-279.14 119.14,-268.66 109.65,-259.3"/>
<polygon fill="grey" stroke="grey" stroke-width="2" points="111.93,-256.63 102.35,-252.1 107.01,-261.62 111.93,-256.63"/>
</g>
<!-- 8 -->
<g id="node9" class="node">
<title>8</title>
<path fill="none" stroke="#59d856" stroke-width="2" d="M273,-252C273,-252 217,-252 217,-252 211,-252 205,-246 205,-240 205,-240 205,-228 205,-228 205,-222 211,-216 217,-216 217,-216 273,-216 273,-216 279,-216 285,-222 285,-228 285,-228 285,-240 285,-240 285,-246 279,-252 273,-252"/>
<text text-anchor="middle" x="245" y="-231.5" font-family="sans" font-size="10.00">bowtie2Align</text>
</g>
<!-- 5&#45;&gt;8 -->
<g id="edge13" class="edge">
<title>5&#45;&gt;8</title>
<path fill="none" stroke="grey" stroke-width="2" d="M178,-287.7C189.21,-278.88 203,-268.03 215.15,-258.47"/>
<polygon fill="grey" stroke="grey" stroke-width="2" points="217.56,-261.04 223.25,-252.1 213.23,-255.54 217.56,-261.04"/>
</g>
<!-- 6 -->
<g id="node7" class="node">
<title>6</title>
<path fill="none" stroke="#d89556" stroke-width="2" d="M280,-108C280,-108 210,-108 210,-108 204,-108 198,-102 198,-96 198,-96 198,-84 198,-84 198,-78 204,-72 210,-72 210,-72 280,-72 280,-72 286,-72 292,-78 292,-84 292,-84 292,-96 292,-96 292,-102 286,-108 280,-108"/>
<text text-anchor="middle" x="245" y="-87.5" font-family="sans" font-size="10.00">samtools_index</text>
</g>
<!-- 6&#45;&gt;0 -->
<g id="edge2" class="edge">
<title>6&#45;&gt;0</title>
<path fill="none" stroke="grey" stroke-width="2" d="M245,-71.7C245,-63.98 245,-54.71 245,-46.11"/>
<polygon fill="grey" stroke="grey" stroke-width="2" points="248.5,-46.1 245,-36.1 241.5,-46.1 248.5,-46.1"/>
</g>
<!-- 7 -->
<g id="node8" class="node">
<title>7</title>
<path fill="none" stroke="#d6d856" stroke-width="2" d="M295,-180C295,-180 195,-180 195,-180 189,-180 183,-174 183,-168 183,-168 183,-156 183,-156 183,-150 189,-144 195,-144 195,-144 295,-144 295,-144 301,-144 307,-150 307,-156 307,-156 307,-168 307,-168 307,-174 301,-180 295,-180"/>
<text text-anchor="middle" x="245" y="-159.5" font-family="sans" font-size="10.00">GATK_MarkDuplicates</text>
</g>
<!-- 7&#45;&gt;6 -->
<g id="edge10" class="edge">
<title>7&#45;&gt;6</title>
<path fill="none" stroke="grey" stroke-width="2" d="M245,-143.7C245,-135.98 245,-126.71 245,-118.11"/>
<polygon fill="grey" stroke="grey" stroke-width="2" points="248.5,-118.1 245,-108.1 241.5,-118.1 248.5,-118.1"/>
</g>
<!-- 12 -->
<g id="node13" class="node">
<title>12</title>
<path fill="none" stroke="#97d856" stroke-width="2" d="M363.5,-108C363.5,-108 322.5,-108 322.5,-108 316.5,-108 310.5,-102 310.5,-96 310.5,-96 310.5,-84 310.5,-84 310.5,-78 316.5,-72 322.5,-72 322.5,-72 363.5,-72 363.5,-72 369.5,-72 375.5,-78 375.5,-84 375.5,-84 375.5,-96 375.5,-96 375.5,-102 369.5,-108 363.5,-108"/>
<text text-anchor="middle" x="343" y="-87.5" font-family="sans" font-size="10.00">freebayes</text>
</g>
<!-- 7&#45;&gt;12 -->
<g id="edge16" class="edge">
<title>7&#45;&gt;12</title>
<path fill="none" stroke="grey" stroke-width="2" d="M268.97,-143.88C281.55,-134.89 297.13,-123.76 310.75,-114.03"/>
<polygon fill="grey" stroke="grey" stroke-width="2" points="312.83,-116.85 318.93,-108.19 308.76,-111.15 312.83,-116.85"/>
</g>
<!-- 8&#45;&gt;7 -->
<g id="edge11" class="edge">
<title>8&#45;&gt;7</title>
<path fill="none" stroke="grey" stroke-width="2" d="M245,-215.7C245,-207.98 245,-198.71 245,-190.11"/>
<polygon fill="grey" stroke="grey" stroke-width="2" points="248.5,-190.1 245,-180.1 241.5,-190.1 248.5,-190.1"/>
</g>
<!-- 9 -->
<g id="node10" class="node">
<title>9</title>
<path fill="none" stroke="#56d89a" stroke-width="2" d="M300,-324C300,-324 226,-324 226,-324 220,-324 214,-318 214,-312 214,-312 214,-300 214,-300 214,-294 220,-288 226,-288 226,-288 300,-288 300,-288 306,-288 312,-294 312,-300 312,-300 312,-312 312,-312 312,-318 306,-324 300,-324"/>
<text text-anchor="middle" x="263" y="-309" font-family="sans" font-size="10.00">trimmomatic_pe</text>
<text text-anchor="middle" x="263" y="-298" font-family="sans" font-size="10.00">sample: B</text>
</g>
<!-- 9&#45;&gt;8 -->
<g id="edge12" class="edge">
<title>9&#45;&gt;8</title>
<path fill="none" stroke="grey" stroke-width="2" d="M258.55,-287.7C256.55,-279.9 254.13,-270.51 251.9,-261.83"/>
<polygon fill="grey" stroke="grey" stroke-width="2" points="255.28,-260.92 249.4,-252.1 248.5,-262.66 255.28,-260.92"/>
</g>
<!-- 10 -->
<g id="node11" class="node">
<title>10</title>
<path fill="none" stroke="#56d8d8" stroke-width="2" d="M405,-180C405,-180 337,-180 337,-180 331,-180 325,-174 325,-168 325,-168 325,-156 325,-156 325,-150 331,-144 337,-144 337,-144 405,-144 405,-144 411,-144 417,-150 417,-156 417,-156 417,-168 417,-168 417,-174 411,-180 405,-180"/>
<text text-anchor="middle" x="371" y="-159.5" font-family="sans" font-size="10.00">samtools_faidx</text>
</g>
<!-- 10&#45;&gt;0 -->
<g id="edge3" class="edge">
<title>10&#45;&gt;0</title>
<path fill="none" stroke="grey" stroke-width="2" d="M380.45,-143.66C389.49,-124.44 399.76,-93.36 385,-72 362.08,-38.81 315.49,-26.38 282.36,-21.74"/>
<polygon fill="grey" stroke="grey" stroke-width="2" points="282.47,-18.23 272.12,-20.49 281.62,-25.18 282.47,-18.23"/>
</g>
<!-- 10&#45;&gt;11 -->
<g id="edge15" class="edge">
<title>10&#45;&gt;11</title>
<path fill="none" stroke="grey" stroke-width="2" d="M324.81,-146.64C321.83,-145.74 318.87,-144.85 316,-144 262.6,-128.18 246.15,-127.11 189.36,-107.94"/>
<polygon fill="grey" stroke="grey" stroke-width="2" points="190.48,-104.63 179.89,-104.7 188.22,-111.25 190.48,-104.63"/>
</g>
<!-- 10&#45;&gt;12 -->
<g id="edge17" class="edge">
<title>10&#45;&gt;12</title>
<path fill="none" stroke="grey" stroke-width="2" d="M364.08,-143.7C360.93,-135.81 357.12,-126.3 353.62,-117.55"/>
<polygon fill="grey" stroke="grey" stroke-width="2" points="356.81,-116.09 349.84,-108.1 350.31,-118.69 356.81,-116.09"/>
</g>
<!-- 11&#45;&gt;0 -->
<g id="edge4" class="edge">
<title>11&#45;&gt;0</title>
<path fill="none" stroke="grey" stroke-width="2" d="M170.97,-71.88C183.55,-62.89 199.13,-51.76 212.75,-42.03"/>
<polygon fill="grey" stroke="grey" stroke-width="2" points="214.83,-44.85 220.93,-36.19 210.76,-39.15 214.83,-44.85"/>
</g>
<!-- 12&#45;&gt;0 -->
<g id="edge5" class="edge">
<title>12&#45;&gt;0</title>
<path fill="none" stroke="grey" stroke-width="2" d="M319.03,-71.88C306.45,-62.89 290.87,-51.76 277.25,-42.03"/>
<polygon fill="grey" stroke="grey" stroke-width="2" points="279.24,-39.15 269.07,-36.19 275.17,-44.85 279.24,-39.15"/>
</g>
</g>
</svg>
